<?xml version="1.0" encoding="utf-8"?>
<!-- Generator: Adobe Illustrator 19.0.0, SVG Export Plug-In . SVG Version: 6.00 Build 0)  -->
<svg version="1.1" id="Layer_1" xmlns="http://www.w3.org/2000/svg" xmlns:xlink="http://www.w3.org/1999/xlink" x="0px" y="0px"
	 viewBox="0 0 1973.8 415.4" style="enable-background:new 0 0 1973.8 415.4;" xml:space="preserve">
<style type="text/css">
	.st0{fill:#273475;}
	.st1{clip-path:url(#SVGID_2_);}
	.st2{clip-path:url(#SVGID_4_);fill:#182A63;}
	.st3{clip-path:url(#SVGID_4_);fill:#FFFFFE;}
	.st4{clip-path:url(#SVGID_4_);fill:#FFFFFF;}
	.st5{clip-path:url(#SVGID_4_);fill:#C6093B;}
	.st6{clip-path:url(#SVGID_6_);fill:#C6093B;}
</style>
<g>
	<path class="st0" d="M571.3,218.7L661,109.1h18.5v236.1H661V135.8l-89.8,110.4L481,135.8v209.4h-18.3V109.1H481L571.3,218.7z"/>
	<path class="st0" d="M744.1,148.4v196.8h-15.2V148.4H744.1z"/>
	<path class="st0" d="M881.7,158.3V175c-17.1-10-31.8-15.1-44.1-15.1c-11.8,0-21.7,3.6-29.6,10.8c-7.9,7.2-11.9,16.1-11.9,26.7
		c0,7.6,2.3,14.5,7,20.6c4.7,6.1,14.5,12,29.4,17.6s25.8,10.3,32.7,14.1c6.9,3.8,12.7,9.2,17.5,16.3c4.8,7.1,7.2,16.4,7.2,27.7
		c0,15.1-5.5,27.9-16.6,38.3c-11.1,10.4-24.6,15.6-40.6,15.6c-16.3,0-33.1-5.7-50.4-17.2v-17.9c19.1,14,35.6,21,49.6,21
		c11.6,0,21.5-3.8,29.5-11.3c8-7.6,12-16.8,12-27.8c0-8.4-2.5-15.9-7.5-22.6c-5-6.7-15.1-13-30.3-18.8
		c-15.2-5.8-26.1-10.5-32.6-14.1c-6.5-3.6-12.1-8.7-16.6-15.3c-4.6-6.6-6.8-15.1-6.8-25.6c0-14.4,5.5-26.8,16.6-37
		c11.1-10.2,24.4-15.3,40-15.3C851.5,145.9,866.6,150,881.7,158.3z"/>
	<path class="st0" d="M1017,158.3V175c-17.1-10-31.8-15.1-44.1-15.1c-11.8,0-21.7,3.6-29.6,10.8c-7.9,7.2-11.9,16.1-11.9,26.7
		c0,7.6,2.3,14.5,7,20.6c4.7,6.1,14.5,12,29.4,17.6s25.8,10.3,32.7,14.1c6.9,3.8,12.7,9.2,17.5,16.3c4.8,7.1,7.2,16.4,7.2,27.7
		c0,15.1-5.5,27.9-16.6,38.3c-11.1,10.4-24.6,15.6-40.6,15.6c-16.3,0-33.1-5.7-50.4-17.2v-17.9c19.1,14,35.6,21,49.6,21
		c11.6,0,21.5-3.8,29.5-11.3c8-7.6,12-16.8,12-27.8c0-8.4-2.5-15.9-7.5-22.6c-5-6.7-15.1-13-30.3-18.8
		c-15.2-5.8-26.1-10.5-32.6-14.1c-6.5-3.6-12.1-8.7-16.6-15.3c-4.6-6.6-6.8-15.1-6.8-25.6c0-14.4,5.5-26.8,16.6-37
		c11.1-10.2,24.4-15.3,40-15.3C986.8,145.9,1002,150,1017,158.3z"/>
	<path class="st0" d="M1074.8,148.4v196.8h-15.2V148.4H1074.8z"/>
	<path class="st0" d="M1215.6,145.9c29.1,0,53.8,9.8,74,29.4c20.2,19.6,30.4,43.5,30.4,71.6c0,28.1-10.1,51.9-30.4,71.5
		c-20.2,19.6-44.9,29.4-74,29.4c-29,0-53.6-9.8-73.7-29.4c-20.1-19.6-30.2-43.4-30.2-71.5c0-28.2,10.1-52,30.2-71.6
		C1162,155.7,1186.6,145.9,1215.6,145.9z M1216.2,333.6c24.5,0,45.2-8.4,62-25.1c16.9-16.8,25.3-37.3,25.3-61.6
		c0-24.4-8.4-45-25.3-61.8c-16.9-16.8-37.5-25.1-62-25.1c-24.6,0-45.4,8.4-62.5,25.1c-17,16.8-25.6,37.3-25.6,61.8
		c0,24.3,8.5,44.9,25.6,61.6C1170.8,325.3,1191.6,333.6,1216.2,333.6z"/>
	<path class="st0" d="M1534.3,148.4v196.8h-12.5l-149.6-172v172H1357V148.4h12.9l149.2,172v-172H1534.3z"/>
	<path class="st0" d="M1584.3,109.1h60.5c25.4,0,44.7,5.5,58.1,16.5c13.4,11,20.1,25.8,20.1,44.5c0,27.3-15,46.4-45,57.5
		c7.8,3.7,18.3,15.7,31.4,36l53.4,81.6h-21.6l-41.1-64.7c-13.7-21.6-24.4-35.1-32.1-40.5c-7.7-5.4-18.9-8-33.6-8h-31.9v113.2h-18.3
		V109.1z M1602.5,124.3v92.5h39.2c19.9,0,35.2-4,45.7-12.1c10.5-8.1,15.8-19.5,15.8-34.2c0-14.5-5.4-25.9-16.1-34
		c-10.7-8.1-26.1-12.2-46.1-12.2H1602.5z"/>
	<path class="st0" d="M1893.7,120.9V141c-20.5-12.1-38.1-18.1-52.9-18.1c-14.2,0-26.1,4.3-35.6,12.9c-9.5,8.6-14.3,19.3-14.3,32
		c0,9.1,2.8,17.4,8.5,24.7c5.6,7.3,17.4,14.4,35.3,21.1c17.9,6.8,31,12.4,39.2,16.9c8.2,4.5,15.2,11,21,19.6
		c5.7,8.6,8.6,19.7,8.6,33.3c0,18.1-6.6,33.5-19.9,46c-13.3,12.5-29.5,18.8-48.7,18.8c-19.6,0-39.8-6.9-60.5-20.6v-21.5
		c22.9,16.8,42.7,25.2,59.5,25.2c14,0,25.8-4.5,35.4-13.6s14.5-20.2,14.5-33.4c0-10-3-19.1-9-27.1c-6-8.1-18.1-15.6-36.3-22.6
		c-18.2-7-31.3-12.6-39.1-16.9c-7.8-4.3-14.5-10.4-20-18.3c-5.5-7.9-8.2-18.2-8.2-30.7c0-17.3,6.6-32.1,19.9-44.3
		c13.3-12.2,29.3-18.3,48-18.3C1857.5,106,1875.7,111,1893.7,120.9z"/>
</g>
<g>
	<g>
		<defs>
			<rect id="SVGID_1_" width="415.4" height="415.4"/>
		</defs>
		<clipPath id="SVGID_2_">
			<use xlink:href="#SVGID_1_"  style="overflow:visible;"/>
		</clipPath>
		<g class="st1">
			<defs>
				<rect id="SVGID_3_" width="415.4" height="415.4"/>
			</defs>
			<clipPath id="SVGID_4_">
				<use xlink:href="#SVGID_3_"  style="overflow:visible;"/>
			</clipPath>
			<path class="st2" d="M374.6,211c0,91.9-74.5,166.4-166.4,166.4c-91.9,0-166.4-74.5-166.4-166.4c0-91.9,74.5-166.4,166.4-166.4
				C300,44.6,374.6,119.1,374.6,211"/>
			<polygon class="st3" points="224.6,150.3 194.4,109.8 201.2,88.6 228.3,133.7 231.4,124 203.6,76.9 211.2,53 238.5,101.7 
				242.7,88.6 216.4,41.2 223.2,19.9 249.6,67.1 261.4,30.2 275.8,34.8 264,71.7 312.9,48.6 306.1,69.9 257.1,93.2 252.9,106.3 
				303.4,82.5 295.8,106.4 245.8,128.6 242.7,138.3 290.9,117.3 284.1,138.5 236,154 			"/>
			<path class="st2" d="M223.8,25.7l26.4,47.2l12.7-39.8l3.9,1.3l2.1,0.7l3.9,1.3l-12.7,39.8l48.9-23.1l-4.9,15.3l-49,23.3
				l-6.1,19.1l50.5-23.8l-5.7,17.8l-50,22.3l-5,15.5l48.2-21l-4.9,15.2L236,151.5l-3.9-1.3l-2.1-0.7l-3.9-1.3l-29-39l4.9-15.2
				l27.1,45.1l5-15.5l-27.8-47.2l5.7-17.8l27.3,48.7l6.1-19.1l-26.3-47.4L223.8,25.7z M299.6,86.9L299.6,86.9 M222.6,14.1l-3.3,10.2
				l-4.9,15.3l-0.6,1.9l1,1.8l25.4,45.6l-2.3,7.1l-22.1-39.4l-5.2-9.3l-3.3,10.2l-5.7,17.8l-0.6,2l1,1.8l26.7,45.4l-1.2,3.8
				l-21.8-36.3l-5.3-8.8l-3.1,9.8l-4.9,15.2l-0.7,2.3l1.4,1.9l29,39l0.9,1.2l1.4,0.5l3.9,1.3l2.1,0.7l3.9,1.3l1.4,0.5l1.4-0.5
				l46.3-14.9l2.3-0.7l0.7-2.3l4.9-15.2l3.1-9.8l-9.4,4.1l-38.8,16.9l1.2-3.8l48.1-21.4l1.9-0.8l0.6-2l5.7-17.8l3.2-10.2l-9.6,4.5
				l-40.9,19.3l2.3-7.1l47.1-22.4l1.8-0.9l0.6-1.9l4.9-15.3l3.3-10.2l-9.7,4.6l-39.2,18.5l9.5-29.6l1.4-4.4l-4.4-1.4l-3.9-1.3
				l-2.1-0.7l-3.9-1.3l-4.4-1.4l-1.4,4.4L249,61.3l-21.2-37.9L222.6,14.1z"/>
			<polygon class="st3" points="268.1,187.4 262.9,176.7 271.2,126.8 291.2,117 277.4,167.8 286.5,163.3 301.3,110.6 323.8,99.6 
				307.6,153 320,147 335.9,95.2 356.1,85.3 340.2,137.1 375,120.1 381.7,133.6 346.9,150.6 397.4,169.9 377.3,179.8 326.6,160.6 
				314.2,166.6 366.4,186.6 343.8,197.6 293.2,176.9 284,181.4 332.6,201.6 312.6,211.4 			"/>
			<path class="st2" d="M352.3,89.8l-15.8,51.7l37.5-18.3l1.8,3.7l1,2l1.8,3.7l-37.5,18.3l50.5,19.3l-14.4,7.1L326.5,158l-18.1,8.8
				l52.2,20l-16.8,8.2l-50.7-20.7l-14.7,7.2l48.6,20.2l-14.3,7l-42.8-23.1L268,182l-1-2l-1.8-3.7l8.1-47.9l14.3-7l-13.8,50.8
				l14.7-7.2l14.8-52.7l16.8-8.2l-16.2,53.4l18.1-8.8l16-51.8L352.3,89.8z M359.8,80.9l-9.6,4.7l-14.4,7l-1.8,0.9l-0.6,1.9
				L318,145.4l-6.7,3.3l13.1-43.2l3.1-10.2l-9.6,4.7l-16.8,8.2l-1.9,0.9l-0.6,2l-14.2,50.7l-3.6,1.8l11.2-40.9l2.7-9.9l-9.2,4.5
				l-14.3,7l-2.1,1l-0.4,2.4l-8.1,47.9l-0.2,1.5l0.7,1.3l1.8,3.7l0.9,1.9l1.8,3.7l0.7,1.3l1.3,0.7l42.8,23.1l2.1,1.1l2.1-1l14.3-7
				l9.2-4.5l-9.5-3.9l-39.1-16.3l3.6-1.8l48.8,19.9l1.9,0.8l1.9-0.9l16.8-8.2l9.6-4.7l-10-3.8L320,166.3l6.7-3.3l48.8,18.5l1.9,0.7
				l1.8-0.9l14.4-7.1l9.6-4.7l-10-3.8l-40.6-15.5l27.9-13.7l4.2-2l-2-4.2l-1.8-3.7l-1-1.9l-1.8-3.7l-2-4.2l-4.2,2L344,132.7
				l12.7-41.5L359.8,80.9z"/>
			<polygon class="st3" points="351.5,306.5 328.2,257.5 315,253.3 338.8,303.8 315,296.2 292.7,246.2 283,243.1 304.1,291.3 
				282.9,284.5 267.4,236.4 271,225 311.6,194.9 332.8,201.7 287.6,228.7 297.3,231.8 344.5,204 368.4,211.7 319.7,239 332.8,243.2 
				380.2,216.9 401.5,223.7 354.3,250 391.2,261.8 386.6,276.2 349.7,264.4 372.8,313.3 			"/>
			<path class="st2" d="M312,197.5l15.2,4.9l-45.1,27l15.5,5l47.2-27.8l17.8,5.7l-48.7,27.3l19.1,6.1l47.4-26.3l15.3,4.9l-47.2,26.4
				l39.8,12.7l-1.3,3.9l-0.7,2.1l-1.3,3.9l-39.8-12.7l23.1,48.9l-15.3-4.9l-23.3-49l-19.1-6.1l23.8,50.5l-17.8-5.7l-22.3-50l-15.6-5
				l21,48.2l-15.2-4.9l-14.9-46.3l1.3-3.9l0.7-2.1l1.3-3.9L312,197.5z M311.1,192.3l-1.9,1.4l-39,29l-1.2,0.9l-0.5,1.4l-1.3,3.9
				l-0.7,2.1l-1.3,3.9l-0.5,1.4l0.5,1.4l14.9,46.3l0.7,2.3l2.3,0.7l15.2,4.9l9.8,3.1l-4.1-9.4l-16.9-38.8l3.8,1.2l21.4,48.1l0.8,1.9
				l2,0.6l17.8,5.7l10.2,3.3l-4.5-9.6l-19.3-40.9l7.1,2.3l22.4,47.1l0.9,1.8l1.9,0.6l15.3,4.9l10.2,3.3l-4.6-9.7l-18.5-39.2
				l29.6,9.5l4.4,1.4l1.4-4.4l1.3-3.9l0.7-2.1l1.3-3.9l1.4-4.4l-4.4-1.4l-29.6-9.5l37.9-21.2l9.3-5.2l-10.2-3.2l-15.3-4.9l-1.9-0.6
				l-1.8,1l-45.6,25.3l-7.1-2.3l39.4-22.1l9.3-5.2l-10.2-3.3l-17.8-5.7l-2-0.6l-1.8,1.1L297,229.3l-3.8-1.2l36.3-21.8l8.8-5.3
				l-9.8-3.1l-15.2-4.9L311.1,192.3z"/>
			<polygon class="st3" points="240.9,375.6 260.8,325.2 254.9,312.7 234.2,364.6 223.5,342 244.8,291.5 240.5,282.3 219.6,330.7 
				210.1,310.5 234.6,266.3 245.4,261.2 295.2,270.2 304,288.4 254,275.7 258.5,285.1 311,300.5 321.7,323.2 268.5,306.3 
				274.4,318.7 326,335.3 335.6,355.6 284.1,339.1 300.6,374.1 287,380.6 270.4,345.6 250.5,395.9 			"/>
			<path class="st2" d="M245.8,263.6l47.8,8.6l6.2,12.6l-49.9-12.7l7,14.8l52.5,15.5l8,16.9l-53.2-16.9l8.6,18.2l51.6,16.6l6.9,14.5
				l-51.5-16.5l17.9,37.7l-3.7,1.8l-2,0.9l-3.7,1.8l-17.9-37.7L250.3,390l-6.9-14.5l19.8-50.5l-8.6-18.2L234,358.8l-8-16.9
				l21.3-50.4l-7-14.8L219.5,325l-6.8-14.4l23.6-42.5l3.7-1.8l2-0.9L245.8,263.6z M245.1,258.8l-1.3,0.6l-3.7,1.8l-2,0.9l-3.7,1.8
				l-1.3,0.6l-0.7,1.3l-23.6,42.5l-1.2,2.1l1,2.2l6.8,14.4l4.4,9.3l4.1-9.4l16.8-38.9l1.7,3.6l-20.5,48.5L221,342l0.9,1.9l8,16.9
				l4.6,9.6l3.9-9.9l16.7-42l3.2,6.7l-19.1,48.6l-0.7,1.9l0.9,1.8l6.9,14.5l4.6,9.7l3.9-9.9l16-40.3l13.3,28.1l2,4.2l4.2-2l3.7-1.8
				l2-0.9l3.7-1.8l4.2-2l-2-4.2l-13.3-28.1l41.4,13.2l10.2,3.3l-4.6-9.7l-6.9-14.5l-0.9-1.8l-1.9-0.6l-49.7-16l-3.2-6.7l43.1,13.7
				l10.2,3.2l-4.6-9.6l-8-16.9l-0.9-1.9l-2-0.6l-50.5-14.9l-1.9-4l40.4,10.3l9.7,2.5l-4.4-9l-6.2-12.6l-1-2.1l-2.3-0.4l-47.8-8.6
				L245.1,258.8z"/>
			<polygon class="st3" points="168,353 156.2,389.9 141.8,385.3 153.6,348.4 104.7,371.5 111.6,350.2 160.5,326.9 164.7,313.8 
				114.2,337.6 121.8,313.7 171.9,291.5 175,281.8 126.7,302.8 133.5,281.6 181.6,266.1 193,269.8 223.2,310.3 216.4,332.1 
				189.3,286.4 186.2,296.1 214,343.2 206.4,367.1 179.1,318.4 174.9,331.5 201.2,378.9 194.4,400.2 			"/>
			<path class="st2" d="M181.6,268.6l3.9,1.3l2.1,0.7l3.9,1.3l29,39l-4.9,15.7l-27.1-45.6l-5,15.5l27.8,47.2l-5.7,17.8l-27.3-48.7
				l-6.1,19.1l26.3,47.4l-4.9,15.3l-26.4-47.2L154.7,387l-3.9-1.3l-2.1-0.7l-3.9-1.3l12.7-39.8l-48.9,23.1l4.9-15.3l49-23.3
				l6.1-19.1L118,333.2l5.7-17.8l50-22.3l5-15.5l-48.2,21l4.9-15.2L181.6,268.6z M181.6,263.7l-1.4,0.5L133.9,279l-2.3,0.7l-0.7,2.3
				l-4.9,15.2L123,307l9.4-4.1l38.8-16.9l-1.2,3.8l-48.1,21.4l-1.9,0.8l-0.6,2l-5.7,17.8l-3.3,10.2l9.6-4.5l40.9-19.3l-2.3,7.1
				l-47.1,22.4l-1.8,0.9l-0.6,1.9l-4.9,15.3l-3.3,10.2l9.7-4.6l39.2-18.6l-9.5,29.6l-1.4,4.4l4.4,1.4l3.9,1.3l2.1,0.7l4,1.3l4.4,1.4
				l1.4-4.4l9.5-29.6l21.2,37.9l5.2,9.3l3.3-10.2l4.9-15.3l0.6-1.9l-1-1.8l-25.4-45.6l2.3-7.1l22.1,39.4l5.2,9.3l3.3-10.2l5.7-17.8
				l0.6-2l-1-1.8l-26.7-45.4l1.2-3.7l21.8,36.7l5.3,9l3.1-10l4.9-15.7l0.7-2.2l-1.4-1.9l-29-39l-0.9-1.2l-1.4-0.5l-3.9-1.3l-2.1-0.7
				l-3.9-1.3L181.6,263.7z"/>
			<polygon class="st3" points="77.6,280.4 43.2,298.1 36.3,284.7 70.7,267 19.8,248.8 39.7,238.5 90.8,256.7 103.1,250.4 
				50.5,231.5 72.8,220 123.9,239.6 132.9,235 83.9,215.8 103.7,205.5 148.7,228.6 154.2,239.2 146.8,289.2 126.1,299.6 
				139.7,248.4 130.8,253 117.1,306 94.8,317.5 110,263.8 97.7,270.1 82.8,322.2 62.9,332.5 			"/>
			<path class="st2" d="M103.7,208.2l43.3,22.2l1.9,3.7l1,1.9l1.9,3.7l-7.1,48.1l-15.1,7.5l13.7-51.3l-14.5,7.5l-13.7,53L98.5,313
				l15.1-53.8l-17.9,9.2l-14.9,52.1L66.6,328l14.7-52L44.2,295l-1.9-3.7l-1-1.9l-1.9-3.7l37.1-19.1l-50.9-18.2l14.3-7.4L91,259.2
				l17.9-9.2l-52.6-18.9l16.6-8.6l51.1,19.6l14.5-7.5l-49-19.2L103.7,208.2z M103.7,202.9l-2.1,1.1l-14.2,7.3l-9.1,4.7l9.5,3.7
				l39.4,15.5l-3.5,1.8l-49.2-18.9l-1.9-0.7l-1.8,1L54.2,227l-9.5,4.9l10,3.6l42.5,15.3l-6.6,3.4l-49.2-17.5l-1.9-0.7l-1.8,0.9
				l-14.3,7.3l-9.5,4.9l10.1,3.6l40.9,14.6l-27.6,14.2l-4.1,2.1l2.1,4.1l1.9,3.7l1,1.9l1.9,3.7l2.1,4.1l4.1-2.1L74,284.9l-11.8,41.8
				L59.2,337l9.5-4.9l14.3-7.3l1.8-0.9l0.6-1.9l14.3-50.2l6.6-3.4L94,311.8L91.1,322l9.5-4.9l16.6-8.6l1.8-1l0.5-2l13.2-51l3.4-1.7
				l-11,41.2l-2.7,9.9l9.2-4.6l15.1-7.5l2.2-1.1l0.4-2.4l7.1-48.1l0.2-1.5l-0.7-1.3l-1.9-3.7l-1-1.9l-1.9-3.7l-0.7-1.3l-1.3-0.7
				L105.9,204L103.7,202.9z"/>
			<polygon class="st3" points="86.4,215.9 131.6,188.9 121.9,185.8 74.7,213.6 50.9,205.9 99.6,178.6 86.5,174.4 39.1,200.8 
				17.7,193.9 65,167.5 28.1,155.7 32.7,141.4 69.6,153.2 46.4,104.3 67.8,111.1 91.1,160.1 104.2,164.3 80.4,113.7 104.3,121.4 
				126.5,171.4 136.2,174.5 115.1,126.3 136.4,133.1 151.9,181.2 148.2,192.5 107.7,222.7 			"/>
			<path class="st2" d="M50.8,108.1l15.3,4.9l23.3,49l19.1,6.1l-23.8-50.5l17.8,5.7l22.3,50l15.5,5l-21-48.2l15.2,4.9l14.9,46.3
				l-1.3,3.9l-0.7,2.1l-1.3,3.9l-39,29L92,215.3l45.1-27.1l-15.5-5l-47.2,27.8l-17.8-5.7l48.7-27.3l-19.2-6.1l-47.4,26.3l-15.3-4.9
				L70.8,167L31,154.2l1.3-3.9l0.7-2.1l1.3-3.9L73.9,157L50.8,108.1z M42.1,100.4l4.6,9.7l18.6,39.2l-29.6-9.5l-4.4-1.4l-1.4,4.4
				l-1.3,3.9l-0.7,2.1l-1.3,3.9l-1.4,4.4l4.4,1.4l29.6,9.5l-37.9,21.2l-9.3,5.2l10.2,3.3l15.3,4.9l1.9,0.6l1.8-1l45.6-25.4l7.1,2.3
				l-39.4,22.1l-9.3,5.2l10.2,3.3l17.8,5.7l2,0.6l1.8-1.1l45.4-26.7l3.8,1.2l-36.3,21.8l-8.8,5.3l9.8,3.1l15.2,4.9l2.3,0.7l1.9-1.4
				l39-29l1.2-0.9l0.5-1.4l1.3-3.9l0.7-2.1l1.3-3.9l0.5-1.4l-0.5-1.4l-14.9-46.3l-0.7-2.3l-2.3-0.7l-15.2-4.9l-9.8-3.1l4.1,9.4
				l16.9,38.8l-3.8-1.2l-21.4-48.1l-0.8-1.9l-2-0.6l-17.8-5.7L76,109.9l4.5,9.6l19.3,40.9l-7.1-2.3L70.3,111l-0.9-1.8l-1.9-0.6
				l-15.3-4.9L42.1,100.4z"/>
			<polygon class="st3" points="126.9,147.5 118.2,127.7 167.9,141.1 163.3,132 110.5,117.6 99.3,95.2 152.9,111 146.7,98.7 
				94.8,83.1 84.8,63 136.7,78.5 119.4,43.8 132.9,37.1 150.2,71.7 169.1,21.1 179.1,41.1 160.2,91.9 166.4,104.3 186,52 
				197.2,74.4 176.9,125.3 181.4,134.5 202,86.5 211.2,105.6 187.5,150.2 176.8,155.6 			"/>
			<path class="st2" d="M169.4,26.9l7.2,14.4l-18.8,50.8l9,18l19.6-52.3l8.3,16.7l-20.3,50.8l7.3,14.6l20.5-47.8l6.5,13.4l-22.8,43
				l-3.7,1.8l-2,1l-3.7,1.8l-48-7.7l-6.2-14.3l50,13.5L165,130l-52.8-14.4l-8.3-16.7l53.6,15.8l-9-18L96.4,81.2l-7.2-14.4l51.8,15.4
				l-18.6-37.4l3.7-1.8l1.9-1l3.7-1.8l18.6,37.4L169.4,26.9z M168.8,15.2l-3.7,10l-15.2,40.7L136,38.1l-2.1-4.2l-4.2,2.1l-3.7,1.8
				l-2,1l-3.7,1.9l-4.1,2.1l2.1,4.2l13.9,27.8L90.6,62.3l-10.2-3l4.8,9.6l7.2,14.4l0.9,1.8l1.9,0.6l50,15l3.3,6.6l-43.3-12.8
				l-10.2-3l4.8,9.5l8.3,16.7l0.9,1.9l2,0.5l50.8,13.8l1.8,3.5l-40-10.8l-9.3-2.5l3.9,8.8l6.2,14.3l1,2.3l2.5,0.4l48,7.7l1.5,0.2
				l1.3-0.7l3.7-1.8l2-1l3.7-1.8l1.3-0.7l0.7-1.3l22.8-43l1.1-2.1l-1-2.1l-6.5-13.4l-4.4-9.2l-4,9.4l-16.6,38.6l-1.9-3.8l19.5-48.9
				l0.8-1.9l-0.9-1.9l-8.3-16.7l-4.8-9.5l-3.7,10l-15.8,42.3l-3.3-6.7l18.1-49l0.7-1.9l-0.9-1.8l-7.2-14.4L168.8,15.2z"/>
			<path class="st2" d="M319.7,209.4c0,60.7-49.2,109.9-110,109.9c-60.7,0-109.9-49.2-109.9-109.9c0-60.7,49.2-109.9,109.9-109.9
				C270.5,99.4,319.7,148.6,319.7,209.4"/>
			<path class="st3" d="M314.6,209.4c0,57.9-47,104.9-104.9,104.9c-57.9,0-104.9-47-104.9-104.9c0-57.9,47-104.9,104.9-104.9
				C267.7,104.5,314.6,151.4,314.6,209.4"/>
			<path class="st2" d="M310.9,209.4c0,55.9-45.3,101.1-101.2,101.1c-55.9,0-101.2-45.3-101.2-101.1c0-55.9,45.3-101.2,101.2-101.2
				C265.6,108.2,310.9,153.5,310.9,209.4"/>
			<path class="st3" d="M304.6,209.4c0,52.3-42.5,94.8-94.8,94.8c-52.4,0-94.8-42.4-94.8-94.8c0-52.4,42.4-94.8,94.8-94.8
				C262.1,114.5,304.6,157,304.6,209.4"/>
			<path class="st3" d="M305.4,209.4c0,52.8-42.8,95.6-95.7,95.6c-52.8,0-95.7-42.8-95.7-95.6c0-52.8,42.8-95.7,95.7-95.7
				C262.6,113.7,305.4,156.5,305.4,209.4"/>
			<polygon class="st4" points="250.2,126.2 235.8,128.3 235.8,111 237.8,109.1 237.8,102 250.8,100.4 			"/>
			<path class="st5" d="M124.5,251.8l0-25.5l1.9-3.1v-15.3l3.9-1.9v-34.2c0,0,6-10.7,8.7-10.7c2.7,0,2.1,3.3,3.3,3.5
				c1.2,0.2,2.7-2.1,2.7-2.1l8-10.1h2.7V142c0,0,0.2-3.3,1.6-3.3h2.7v-2.5h-1.7V134h1.7v-4.1h3.7v3.9h1.9v2.3H164v2.5l2.9,3.1v8.9
				c0,0-0.2,1.4,1.4,2.5c1.6,1.2,13.2,11.7,13.2,11.7h1.7c0,0,0.4-1.2,1.7-1.2s5.4,5.3,5.6,7.6c0.1,2.3,0,41.6,0,41.6l1.8,1.7h8.6
				v-15.3c0,0,2.1-5.2,3.2-6.7c1.2-1.6,2.3-3.2,2.3-3.2V153h4v-1.7h-1.6v-4l28.5-26.8v-7.8h4.7v-3.6l-0.6-1c0,0-2.3,0-2.5-1.6
				c-0.1-1.6,3.1-1.8,3.1-1.8v-2.1c0,0,0.8-0.9,2.1-0.9s1.4,0.9,1.4,0.9v2.1c0,0,1.8,0,1.9,0.6c0.1,0.6,0,2.1,0,2.1
				s-1.4,0.1-1.4,0.5v4.8h3v11.4l28.5,23.9v46.5c0,0-30.2-8.4-31.2-9.2c-1-0.8-1.2-3.8-1.2-3.8s0.3,0.5-0.8,0c-1-0.5-1.4,1-1.4,1
				h-4.3l-0.1-3.8l1.6-0.5l0.3-3.6h4.3l0.1-13.1l-2.2-0.1c0,0-2.7,1.9-4.4,1.9c-1.7,0-3.9-2.1-3.4-5.3c0.5-3.2,0.6-4.9,0.6-4.9
				l3.6,0.3l0.1,4.3l5.4,0.4l0.1-1.7c0,0,0-5.7-0.9-6.2c-0.9-0.5-23.8,3.8-24.9,4.5c-1,0.8-0.4,2.7-0.4,2.7v26.8h-2.9v-12.7
				c0,0-0.1-1-2.2-1.2c-2.1-0.1-3.9,0.3-3.9-0.9c0-1.2,1.2-2.1,1.8-2.5s1-1.4,1-1.4l-0.1-0.9c0,0-0.8-0.3-0.9-1.6
				c-0.1-1.3,1.3-2.1,2.1-2.5c0.8-0.4,1.3-1.3,1.3-1.3l-0.1-3.4c0,0-3-0.4-4.1,0.1c-1.2,0.5-1.6,2.2-1.6,2.2v2.1v28.2
				c0,0,0.8,0.6,1.8,1.2l1,0.5c0,0,2.5-1,5.2-1.7c2.7-0.6,4.9-0.9,4.9-0.9v-27.1c0,0,1.8-1,2.2-1.7c0.4-0.7,0.9-1.3,0.9-1.3v-3.1
				h3.9c0,0,2.7,2.1,3.5,3.2c0.8,1.2,0.8,2.5,0.3,2.6c-0.5,0.1-0.8,0.9-0.8,0.9v2.5h0.9V163h2.7v1.3l0.6,0.6v13.1c0,0,1,0,1.1,1.6
				c0.1,1.6,0.1,4.3,0.1,4.3s1.5-0.1,2.7,1.6c1.3,1.7,0.9,2.5,0.9,2.5v1.4h9.2l27.4,8.5V216c0,0,0.7,1.2,2.2,1.2
				c1.5,0,7.3-5.8,7.3-5.8v-13.5c0,0,0.4-1.3,2.2-1.3c1.8,0,2.4,1.7,2.4,1.7v10.5c0,0,3.5,0.2,5.2,1.1c1.8,0.9,4.7,2.3,4.9,4.1
				c0.2,1.7,0,3.1,0,3.1l0.1,16.3c0,0-1.5,6.2-3.8,11.5c-2.6,7-6.6,13.5-6.6,13.5v-12.9c0,0-1.2-2-3.6-1.8c-2.4,0.2-4.1,2.9-4.1,2.9
				v19.9c0,0-0.2,1.2-1.6,2.2c-1.4,1.1-2.2,0.9-2.2,0.9h-13.7c0,0-4.4,0.1-5.1,0.6c-0.7,0.5-1.8,2.4-2.9,2.8
				c-1.1,0.4-3.3,0.3-4.8,1.4c-1.5,1.1-3.6,2.5-3.6,2.5h-11.7v2c0,0,1.7,2.9-0.4,4.7c-2,1.7-1.4,2.6-4.5,2.6c-3.1,0-4.2-1.4-4.3-3.8
				c-0.1-2.4,2-4.4,2-4.4l0.3-0.9H214v1.4c0,0,2.3,0.6,3.1,1.6c0.8,1,0.3,2.1,0.3,2.4s-0.8,1.3-2.5,1.6l-1.8,0.3v1
				c0,0,1.2,0.1,1.2,0.9v9.5c0,0-1.2,1.4-1.2,2.1c0.1,0.8,0,6.8,0,6.8s-4.4,0.1-6.8,0c-2.4,0-6.4-0.5-6.4-0.5l0.3-5.4
				c0,0-1.4-1.3-1.5-3.2c-0.1-1.9,1.3-3.7,1.3-3.7l0.1-2.7c0,0-0.8-1.2-0.8-4.3c0-3.1,0.2-4.2,1.4-5.4c1.2-1.3,1.5-1.3,2.8-1.4
				c1.3-0.1,6.7,0,6.7,0v-1c0,0-2.4-0.1-2.5-2.1c-0.1-2,2.3-1.2,2.3-1.2h28.2V273c0,0-27.8-0.7-30.6-1.2c-2.8-0.5-8.8-3-8.8-7.8
				s3.1-5.3,5.5-5.3c2.4,0,3.3,0.6,3.7,1.4c0.4,0.8,1.1,1.3,0.8,2.7c-0.3,1.5-0.9,2.9-0.9,2.9s-0.4,0.2,0.3,1.1
				c0.7,0.9,1.2,1.1,4,1.4c2.8,0.3,32.6,0,32.6,0v-19.9c0,0-8.7,1.6-8.7-3.3c0-4.9,9.1-4.9,9.1-4.9l-0.5-2.1c0,0-10,3.3-10.2-3.7
				c-0.2-7,9-2.5,10.3-4.9c1.3-2.3-0.1-1.4-0.1-1.4v-2.6c0,0-7.4,0.8-9-0.3c-1.7-1.1-0.8-4.2,0.6-5.9c1.4-1.7,3.3-1.6,3.3-1.6h5
				v-18.6c0,0-0.1-0.6-1.1-0.6c-1,0-23.2,4.1-27.5,4.9c-4.3,0.8-5.2,1.5-4,2.6c1.2,1.2,1,1.8,2.1,1.8c1.2,0.1,1-1.9,4.1-1.9
				c3.1,0,4.9,1,4.9,3.9c0,2.9-1.3,3.1-1.3,3.1l-4.5,0.3l-3.3-0.1l-0.2-2h-1.6c0,0,0.3,2.4-2.2,3.7c-2.5,1.3-4.4,1.9-4.4,1.9l-0.2,1
				l-0.5,1.8h-10.3c0,0-8.5-1.1-9.5-1.4c-1.1-0.3-3.3-1.9-4.5-3.3c-1.2-1.4-1.4-2.9-2.5-2.9c-1.2,0-3.3,3.6-5.1,5.2
				c-1.7,1.7-3.4,2.7-6.9,2.6c-3.5-0.1-7.9-2.8-8.2-5c-0.3-2.1-0.3-3-0.3-3s-6.4,0.9-9.8,1.8c-3.4,0.9-4.9,1.1-4.9,1.1v0.6
				c0,0,6-0.2,6,3.4c0,3.6-4.2,5.2-8.5,5.2c-4.3,0-9.7-1.1-9.7-4.7c0-3.7,3.9-3.2,3.9-3.2l0.5-4.1l22.5-4.1V206l-27.9,5.4
				c0,0-0.4,0.5-0.3,2.6c0.1,2.1,0,10.4,0,10.4s1.6,0.3,1.6,2.1c0,1.9-3.4,3.2-3.4,3.2V245c0,0,2.9,1.3,4.8,2.9
				c1.8,1.5,2.1,2.6,2.1,4c0,1.5,0.3,3.1,0.3,3.1h1.2c0,0,0.7-4,5.1-3.9c4.4,0.1,5.6,3.9,5.4,7.8c-0.2,3.9-2.7,6.8-5.9,6.8
				c-3.2,0-4.3-3.2-5.1-4c-0.9-0.8-4.3,1.9-4.3,1.9s-1.6-2-3.8-6C125.6,254.4,124.5,251.8,124.5,251.8"/>
			<path class="st5" d="M160.9,224.3c-1.7-0.1-4.8,2.5-6.7,2.6c-1.9,0.1-2.7-2.6-4.9-2.6c-2.2,0-8.8,1.7-9.7,3.8
				c-0.9,2.1-0.4,3.8,0.7,4.5c1,0.8,1.3,2.2,0.6,2.7c-0.6,0.5-1.8,1.2-1.8,3.4c0.1,2.2,1.5,1.7,1.6,3c0.1,1.3-0.5,3.2-0.6,5.3
				c-0.1,2.1,0.9,3.2,3.1,3.5c2.2,0.3,1.9-2.7,3.6-3.5c1.7-0.8,2.2-0.9,3.2,0.4c1,1.3-0.9,3.1-0.9,3.1s-1.7,3.7,3,3.7
				c4.7,0,7.4-2.9,7.3-5.7c-0.1-2.8-2.6-3.5-2.6-3.5s0-1,0.3-1.8c0.3-0.8,2.1-2.5,3.9-2.8c1.8-0.4,6.3-3,6.3-7.3
				C167.2,228.8,167,224.5,160.9,224.3"/>
			<path class="st5" d="M178.9,225.7c0,2.4-2.2,4.3-4.9,4.3c-2.7,0-4.9-1.9-4.9-4.3c0-2.4,2.2-4.3,4.9-4.3
				C176.7,221.4,178.9,223.3,178.9,225.7"/>
			<path class="st5" d="M174,232.7c0,0-2.6-1.2-3.5,0.5c-0.9,1.7-1.2,3.2-1.4,8.6c-0.3,5.3-0.4,7.4,2.5,7.4c2.8,0,3-6,3.1-9.9
				C174.7,235.3,174.9,233,174,232.7"/>
			<path class="st5" d="M171.8,249.9c0,0,14.5,21.6,15.6,24c1.2,2.3,2.6,4.7,1.8,6c-0.8,1.3-3.5,1.4-10.6,1.4h-21.3
				c0,0-4-3.5-1.2-3.8c2.9-0.3,26.8,0.3,27.1-0.9c0.3-1.2-7.6-14-8.6-14.5c-1-0.5-1,0.8-1,2.6c0,1.8,0.3,2.9,0.3,2.9s1.4,0,3,1
				c1.6,1,0.8,2.2,0.8,3.6c0,1.4-0.1,3.5-3,3.5c-2.9,0-2.4-3.1-2.4-3.1l-0.5-0.5c0,0,0,1.3-1.5,1.3c-1.4,0-2.3-1.4-2.2-3.4
				c0.1-1.9,0.8-3.4,0.8-3.4l-1-0.1c0,0-4.5,6.2-5.6,7.1c-1,0.9-4.9,0.3-2.6-3.8c2.3-4,9.8-20,9.8-20H171.8z"/>
			<path class="st5" d="M156.3,273.9c0,2.4-1.9,4.3-4.3,4.3c-2.4,0-4.3-1.9-4.3-4.3v-2.1c0-2.4,1.9-4.3,4.3-4.3
				c2.4,0,4.3,1.9,4.3,4.3V273.9z"/>
			<path class="st5" d="M238.5,209.9c0,2.9-2.6,5.2-5.8,5.2c-3.2,0-5.8-2.3-5.8-5.2c0-2.9,2.6-5.2,5.8-5.2
				C235.9,204.7,238.5,207,238.5,209.9"/>
			<path class="st5" d="M227.2,288.9c0,3.1-2.3,5.6-5.1,5.6c-2.8,0-5.1-2.5-5.1-5.6c0-3.1,2.3-5.6,5.1-5.6
				C225,283.3,227.2,285.8,227.2,288.9"/>
			<path class="st5" d="M219.4,295c0-2.4,2-4.4,4.4-4.4c2.4,0,4.4,2,4.4,4.4v2.8c0,2.4-2,4.4-4.4,4.4c-2.4,0-4.4-2-4.4-4.4V295z"/>
			<path class="st5" d="M228.6,219.7c0,2.5-2.1,4.6-4.6,4.6h-3.8c-2.5,0-4.6-2.1-4.6-4.6c0-2.5,2.1-4.6,4.6-4.6h3.8
				C226.6,215.1,228.6,217.1,228.6,219.7"/>
			<path class="st5" d="M219.2,225.2c0,3.1,2.5,5.5,5.5,5.5h3.9c3.1,0,5.5-2.5,5.5-5.5c0-3.1-2.5-5.5-5.5-5.5h-3.9
				C221.7,219.7,219.2,222.1,219.2,225.2"/>
			<path class="st5" d="M199.9,222.2c0,0-1.8-2.1-4.8-1.8c-3,0.3-4.4,3.9-4.4,3.9s-4.9-0.2-7.4,0.9c-2.5,1.1-3.1,7,1.8,7.1
				c4.9,0.1,10.4-3.2,10.4-3.2s4.1,0,4.4-2.7c0.3-2.7-1.3-2.1-1.3-2.1S200.1,224,199.9,222.2"/>
			<path class="st5" d="M214.5,230H201c0,0-0.4,3.9-2.8,4.9c-2.5,1-9.5,1.2-11,2.5c-1.6,1.3,0.6,5.8,2.3,5.8h3.8l-0.1,1.8h-1.8v4.9
				h6c0,0-0.1,2.5,1.9,4.3c2.1,1.8,3.6,1.6,3.6,1.6h9.1l-0.1,0.9c0,0-1.7-0.3-2.3,2.3c-0.6,2.6-0.6,9.3,11.7,8.6
				c12.3-0.8,13.6-9.2,12.4-10.9c-1.1-1.6-1.9-2.8-4.9-2.7c-3,0.1-4.8,2-4.8,2h-3.6c0,0-0.9-0.1,0-1.3c0.9-1.2,3-2.6,3-5.6
				c0-3-1-3.2-1-3.2V245c0,0,4,0.5,3.9-4.3c-0.1-4.8-2.6-5.2-6.4-5.2c-3.8,0-5.2,5.8-5.2,5.8s-0.4,0.1-1.3,0.6c-0.9,0.5-10,1-11.9,1
				c-1.9,0-4-0.1-4-0.1l0.3-0.5c0,0,1.8-0.4,6.9-1.7c5.1-1.3,10.1-4.1,10.5-6.7C215.3,231.4,214.5,230,214.5,230"/>
			<path class="st5" d="M243.9,170.4c0,1.5-1.2,2.4-2.7,2.4H240c-1.5,0-2.7-1-2.7-2.4c0-1.5,1.2-2,2.7-2h1.3
				C242.7,168.4,243.9,169,243.9,170.4"/>
			<path class="st3" d="M143.1,258.7c0,1.1-0.9,2-2,2c-1.1,0-2-0.9-2-2v-0.5c0-1.1,0.9-2,2-2c1.1,0,2,0.9,2,2V258.7z"/>
			<path class="st3" d="M130.6,253.8c0,0.6-0.5,1.2-1.2,1.2c-0.6,0-1.2-0.5-1.2-1.2v-0.7c0-0.6,0.5-1.2,1.2-1.2
				c0.6,0,1.2,0.5,1.2,1.2V253.8z"/>
			<path class="st3" d="M146.8,237.1c0,0.5-0.4,0.9-0.9,0.9H144c-0.5,0-0.9-0.4-0.9-0.9c0-0.5,0.4-0.9,0.9-0.9h1.9
				C146.4,236.1,146.8,236.6,146.8,237.1"/>
			<path class="st3" d="M208.6,235.2c0,0.5-0.4,0.9-0.9,0.9h-3.4c-0.5,0-0.9-0.4-0.9-0.9c0-0.5,0.4-0.9,0.9-0.9h3.4
				C208.2,234.3,208.6,234.7,208.6,235.2"/>
			<path class="st3" d="M210,288c0,0.6-0.5,1.1-1.1,1.1h-4.7c-0.6,0-1.1-0.5-1.1-1.1c0-0.6,0.5-1.1,1.1-1.1h4.7
				C209.5,286.9,210,287.4,210,288"/>
			<path class="st3" d="M243.7,234.4c0,0.4-0.4,0.8-0.8,0.8h-2.6c-0.4,0-0.8-0.4-0.8-0.8c0-0.4,0.4-0.8,0.8-0.8h2.6
				C243.3,233.6,243.7,234,243.7,234.4"/>
			<path class="st3" d="M162.3,233.6c-0.8-0.9-2.8-0.5-5.2-0.5c-2.4,0-3.2,3.9-3.2,3.9s1.9,0.9,3.1,0.9
				C158.2,238,163.1,234.6,162.3,233.6"/>
			<rect x="171.2" y="259.3" class="st3" width="1.6" height="1.7"/>
			<rect x="217.6" y="249.6" class="st3" width="1.6" height="1.6"/>
			<rect x="215.8" y="250.4" class="st3" width="3.4" height="0.8"/>
			<rect x="214.2" y="251.2" class="st3" width="4.2" height="0.9"/>
			<rect x="203.1" y="248.8" class="st3" width="2.8" height="0.9"/>
			<rect x="203.1" y="251.2" class="st3" width="4.8" height="0.9"/>
			<path class="st3" d="M223,261.9v-1.8c0,0-3.7,0.6-4.6,0c-0.9-0.6-1.1-0.7-2.6-0.8c-1.6-0.1-4.1,2.5-1.6,3.8
				c2.5,1.3,3,1.8,5.7,0.6C222.7,262.4,223,261.9,223,261.9"/>
			<path class="st3" d="M162,149.8c0,0.9-0.7,1.6-1.6,1.6c-0.9,0-1.6-0.7-1.6-1.6v-5.2c0-0.9,0.7-1.6,1.6-1.6c0.9,0,1.6,0.7,1.6,1.6
				V149.8z"/>
			<path class="st3" d="M161.3,157.9h-1.5c0,0-2,4.2-2,6c0,1.8,2.5,1.7,3.5,0.8C162.2,163.9,162,157.9,161.3,157.9"/>
			<path class="st3" d="M149.4,162.8l-3.9,3.9c0,0,1.2,1.4,3,1.3C150.4,167.8,150,163.5,149.4,162.8"/>
			<path class="st3" d="M169.8,187.9c0,0,0.4-4.7,3-5.7c2.6-1.1,4,1.9,4,1.9v-3.7c0,0-0.5-2.1-3.5-2.1
				C168.7,178.1,169.8,187.9,169.8,187.9"/>
			<path class="st3" d="M170.6,195.4c0,0,1.2,2.8,3.1,3.1c1.9,0.3,3.1-0.7,3.1-0.7v1.9c0,0-0.7,0.6-3.1,0.6
				C168.8,200.2,170.6,195.4,170.6,195.4"/>
			<path class="st3" d="M150.6,173.5c0,0,4.6,9.3,4.8,11c0.2,1.7,0.2,2.4-1.6,2.4c-1.7,0-2.3-1.6-2.3-1.6v2.6c0,0,2.2-0.7,3.1,1.3
				c0.9,1.9,0.9,11.8,0.9,11.8s-0.2,1-2,1.1c-1.8,0.1-2.3-1.6-2.3-1.6l-1.2-0.5c0,0,0.5,1.3-1.3,2c-1.8,0.8-5.4,1-6.6,0.7
				c-1.2-0.3-1.4-1.1-1.4-1.1v-20.3c0,0,0.9-2,2-2.3c1.2-0.3,5.3-0.1,5.3-0.1s-0.2-1.1-1.2-2.6c-1-1.6-1.2-1.7-2.7-1.6
				c-1.6,0.1-2.3,0.5-2.5,1.9c-0.2,1.5-0.2,2.8-1,3.6c-0.7,0.8-1.7,2.1-1.8,2.8c-0.1,0.7-0.7,1.2-1.9,1.3c-1.2,0.1-2.3-1.8-1.7-3.8
				c0.6-1.9,1.4-2.4,1.4-2.4l-0.3-1.7h-2.3v30.2l23.7-3.6c0,0,1.2-29.7,0-30.8C156.6,171.1,150.6,173.5,150.6,173.5"/>
			<polygon class="st3" points="163.3,167.3 184.2,174.6 184.2,175.5 163.3,168.4 			"/>
			<path class="st4" d="M263.2,178.4c0,1.7-1.4,3-3,3c-1.7,0-3-1.4-3-3v-13.3c0-1.7,1.4-3,3-3c1.7,0,3,1.4,3,3V178.4z"/>
			<path class="st4" d="M291.5,238.3c0,0.6-0.5,1.1-1.1,1.1h-6.3c-0.6,0-1.1-0.5-1.1-1.1v-5.4c0-0.6,0.5-1.1,1.1-1.1h6.3
				c0.6,0,1.1,0.5,1.1,1.1V238.3z"/>
			<path class="st4" d="M291.5,225.8c0,0.6-0.5,1.1-1.1,1.1h-6.3c-0.6,0-1.1-0.5-1.1-1.1v-5.4c0-0.6,0.5-1.1,1.1-1.1h6.3
				c0.6,0,1.1,0.5,1.1,1.1V225.8z"/>
			<polygon class="st4" points="206,201.5 206,199.6 242.9,192.4 247.8,192.4 274.3,200.4 274.3,201.7 248,194.1 243,194.2 			"/>
			<polygon class="st4" points="234,183 234,185.4 225.7,187.9 225.7,185.4 			"/>
			<path class="st5" d="M185.8,249.2v10.9c0,0,0.8,0.3,2.3,0c1.6-0.3,3-5.4,2.6-8c-0.4-2.6-1.4-4.5-3.2-4.2
				C185.8,248.1,185.8,249.2,185.8,249.2"/>
			<path class="st5" d="M164.4,248.8c1.7,1.5,0.3,4.8-1,6.2c-1.3,1.5-2.6,1.5-3.5-1.5C158.9,250.5,162.6,247.3,164.4,248.8"/>
			<path class="st4" d="M210.2,211.8c0,0.1-0.1,0.1-0.1,0.1h-4.4c-0.1,0-0.1,0-0.1-0.1v-2c0-0.1,0-0.1,0.1-0.1h4.4
				c0.1,0,0.1,0,0.1,0.1V211.8z"/>
			<path class="st4" d="M210.8,196c0,0.1,0,0.1-0.1,0.1h-1.9c-0.1,0-0.1,0-0.1-0.1v-3.5c0-0.1,0.1-0.1,0.1-0.1h1.9
				c0.1,0,0.1,0.1,0.1,0.1V196z"/>
			<path class="st4" d="M143.1,220c0,0.1-0.1,0.1-0.1,0.1h-2.3c-0.1,0-0.1-0.1-0.1-0.1v-0.7c0-0.1,0-0.1,0.1-0.1h2.3
				c0.1,0,0.1,0.1,0.1,0.1V220z"/>
			<path class="st4" d="M207.9,295.4c0,0.1-0.1,0.1-0.1,0.1h-2.2c-0.1,0-0.1,0-0.1-0.1v-1.1c0-0.1,0.1-0.1,0.1-0.1h2.2
				c0.1,0,0.1,0,0.1,0.1V295.4z"/>
			<path class="st4" d="M226.8,226.8c0,0.1-0.1,0.1-0.1,0.1h-1.8c-0.1,0-0.1,0-0.1-0.1v-1.4c0-0.1,0.1-0.1,0.1-0.1h1.8
				c0.1,0,0.1,0.1,0.1,0.1V226.8z"/>
			<path class="st4" d="M271,146H266c0,0,0.8-3,2.5-2.9C270.2,143.1,271,146,271,146"/>
			<polygon class="st4" points="242.2,116.7 242.2,122.3 239,122.3 240.6,116.7 			"/>
			<polygon class="st4" points="231.4,131.6 224.1,137.6 225,138.6 232.3,132.3 			"/>
			<path class="st4" d="M221.9,143.7h-4l-2.7,2.9c0,0-1.2,0.3,1,0.7c2.2,0.4,4.7-1.2,4.7-1.2L221.9,143.7z"/>
			<path class="st4" d="M223.2,150.3c0,0.1,0,0.1-0.1,0.1h-1.8c-0.1,0-0.1,0-0.1-0.1v-0.8c0-0.1,0.1-0.1,0.1-0.1h1.8
				c0.1,0,0.1,0.1,0.1,0.1V150.3z"/>
			<path class="st4" d="M228.2,148.3v2.1l4.1-0.5c0,0,0.5-0.9,1.6-1.6c1-0.6,2.1-1.1,2.1-1.1v-0.6h-7.7V148.3z"/>
			<path class="st4" d="M240.6,128.8h2.3v13.3c0,0-2.1,2.2-3.9,2.4c-1.8,0.2-5.4,0-5.4,0s0.8-1.2,1.3-2.8c0.5-1.6,0.1-2.2,0.1-2.2
				s4.7,1,4.9-0.9c0.3-1.9,0.7-3.5,0.7-3.5h-2.4l0.8-2.6l1.6-0.3V128.8z"/>
		</g>
		<g class="st1">
			<defs>
				<path id="SVGID_5_" d="M114.6,209.7c0,52.5,42.6,95.1,95.1,95.1c52.5,0,95.1-42.6,95.1-95.1c0-52.5-42.6-95.1-95.1-95.1
					C157.2,114.6,114.6,157.2,114.6,209.7"/>
			</defs>
			<clipPath id="SVGID_6_">
				<use xlink:href="#SVGID_5_"  style="overflow:visible;"/>
			</clipPath>
			<path class="st6" d="M143.6,280c0,1.9-1.5,3.4-3.4,3.4c-1.9,0-3.4-1.5-3.4-3.4v-1.2c0-1.9,1.5-3.4,3.4-3.4c1.9,0,3.4,1.5,3.4,3.4
				V280z"/>
			<path class="st6" d="M176.2,298.9c0,3-2.5,5.5-5.5,5.5c-3,0-5.5-2.5-5.5-5.5v-4.3c0-3,2.5-5.5,5.5-5.5c3,0,5.5,2.5,5.5,5.5V298.9
				z"/>
			<path class="st6" d="M158.7,286.4c0,2.8-2.3,5.1-5.1,5.1h-6.1c-2.8,0-5.1-2.3-5.1-5.1c0-2.8,2.3-5.1,5.1-5.1h6.1
				C156.4,281.3,158.7,283.6,158.7,286.4"/>
			<path class="st6" d="M275,285.5c0,0-2.5-8.2-5.4-7.4c-3,0.8-13.5,7-15.8,7.4c-2.3,0.4-4.7-0.6-5.7,0.8c-1,1.5-0.3,4.2-1.4,4.2
				c-1.2,0-2.2-1.8-7-1.7c-4.8,0.1-8.3,1.3-7.9,7.5c0.4,6.2,3.9,10.8,3.9,10.8s17.6-5.8,22.8-8.4C263.6,296.2,275,285.5,275,285.5"
				/>
		</g>
	</g>
</g>
</svg>
