<?xml version="1.0" encoding="utf-8"?>
<!-- Generator: Adobe Illustrator 19.0.0, SVG Export Plug-In . SVG Version: 6.00 Build 0)  -->
<svg version="1.1" id="Layer_1" xmlns="http://www.w3.org/2000/svg" xmlns:xlink="http://www.w3.org/1999/xlink" x="0px" y="0px"
	 viewBox="0 0 193 40" style="enable-background:new 0 0 193 40;" xml:space="preserve">
<style type="text/css">
	.st0{fill:none;}
	.st1{fill:#273475;}
	.st2{font-family:'GillSans-Light';}
	.st3{font-size:34.4911px;}
	.st4{font-size:28.7425px;}
	.st5{clip-path:url(#SVGID_2_);}
	.st6{clip-path:url(#SVGID_4_);fill:#182A63;}
	.st7{clip-path:url(#SVGID_4_);fill:#FFFFFE;}
	.st8{clip-path:url(#SVGID_4_);fill:#FFFFFF;}
	.st9{clip-path:url(#SVGID_4_);fill:#C6093B;}
	.st10{clip-path:url(#SVGID_6_);fill:#C6093B;}
</style>
<rect x="17.5" y="9.8" class="st0" width="199.5" height="49.6"/>
<text transform="matrix(1 0 0 1 43.4502 33.3213)"><tspan x="0" y="0" class="st1 st2 st3">M</tspan><tspan x="26.9" y="0" class="st1 st2 st4">ISSION</tspan><tspan x="111.7" y="0" class="st1 st2 st3">RS</tspan></text>
<g>
	<g>
		<defs>
			<rect id="SVGID_1_" x="0" y="-1.1" width="41.4" height="41.4"/>
		</defs>
		<clipPath id="SVGID_2_">
			<use xlink:href="#SVGID_1_"  style="overflow:visible;"/>
		</clipPath>
		<g class="st5">
			<defs>
				<rect id="SVGID_3_" x="0" y="-1.1" width="41.4" height="41.4"/>
			</defs>
			<clipPath id="SVGID_4_">
				<use xlink:href="#SVGID_3_"  style="overflow:visible;"/>
			</clipPath>
			<path class="st6" d="M37.3,20c0,9.2-7.4,16.6-16.6,16.6c-9.2,0-16.6-7.4-16.6-16.6c0-9.2,7.4-16.6,16.6-16.6
				C29.9,3.4,37.3,10.8,37.3,20"/>
			<polygon class="st7" points="22.4,13.9 19.4,9.9 20.1,7.8 22.7,12.2 23.1,11.3 20.3,6.6 21,4.2 23.8,9.1 24.2,7.8 21.6,3 
				22.2,0.9 24.9,5.6 26,1.9 27.5,2.4 26.3,6.1 31.2,3.8 30.5,5.9 25.6,8.2 25.2,9.5 30.2,7.1 29.5,9.5 24.5,11.7 24.2,12.7 
				29,10.6 28.3,12.7 23.5,14.3 			"/>
			<path class="st6" d="M22.3,1.5l2.6,4.7l1.3-4l0.4,0.1l0.2,0.1l0.4,0.1l-1.3,4l4.9-2.3l-0.5,1.5L25.4,8L24.8,10l5-2.4l-0.6,1.8
				l-5,2.2l-0.5,1.5l4.8-2.1l-0.5,1.5L23.5,14l-0.4-0.1l-0.2-0.1l-0.4-0.1l-2.9-3.9l0.5-1.5l2.7,4.5l0.5-1.5l-2.8-4.7l0.6-1.8
				l2.7,4.9l0.6-1.9L21.8,3L22.3,1.5z M29.9,7.6L29.9,7.6 M22.2,0.3l-0.3,1l-0.5,1.5l-0.1,0.2l0.1,0.2l2.5,4.5l-0.2,0.7l-2.2-3.9
				L21,3.6l-0.3,1l-0.6,1.8L20,6.6l0.1,0.2l2.7,4.5l-0.1,0.4l-2.2-3.6L20,7.2l-0.3,1l-0.5,1.5l-0.1,0.2l0.1,0.2l2.9,3.9l0.1,0.1
				l0.1,0l0.4,0.1l0.2,0.1l0.4,0.1l0.1,0l0.1,0l4.6-1.5l0.2-0.1l0.1-0.2l0.5-1.5l0.3-1l-0.9,0.4l-3.9,1.7l0.1-0.4l4.8-2.1l0.2-0.1
				l0.1-0.2l0.6-1.8l0.3-1l-1,0.5l-4.1,1.9l0.2-0.7l4.7-2.2l0.2-0.1l0.1-0.2l0.5-1.5l0.3-1l-1,0.5l-3.9,1.8l0.9-2.9l0.1-0.4
				l-0.4-0.1L26.9,2l-0.2-0.1l-0.4-0.1l-0.4-0.1l-0.1,0.4L24.8,5l-2.1-3.8L22.2,0.3z"/>
			<polygon class="st7" points="26.7,17.6 26.2,16.5 27,11.6 29,10.6 27.6,15.6 28.6,15.2 30,9.9 32.3,8.9 30.6,14.2 31.9,13.6 
				33.5,8.4 35.5,7.4 33.9,12.6 37.4,10.9 38,12.2 34.6,13.9 39.6,15.9 37.6,16.8 32.5,14.9 31.3,15.5 36.5,17.5 34.3,18.6 
				29.2,16.6 28.3,17 33.1,19 31.1,20 			"/>
			<path class="st6" d="M35.1,7.9L33.5,13l3.7-1.8l0.2,0.4l0.1,0.2l0.2,0.4L34,14l5,1.9l-1.4,0.7l-5.1-1.9l-1.8,0.9l5.2,2l-1.7,0.8
				l-5.1-2.1L27.7,17l4.8,2l-1.4,0.7l-4.3-2.3l-0.2-0.4l-0.1-0.2l-0.2-0.4l0.8-4.8l1.4-0.7l-1.4,5.1l1.5-0.7l1.5-5.3l1.7-0.8
				l-1.6,5.3l1.8-0.9l1.6-5.2L35.1,7.9z M35.9,7l-1,0.5l-1.4,0.7l-0.2,0.1l-0.1,0.2l-1.5,5L31,13.7l1.3-4.3l0.3-1l-1,0.5L30,9.7
				l-0.2,0.1L29.8,10L28.4,15L28,15.2l1.1-4.1l0.3-1l-0.9,0.4L27,11.3l-0.2,0.1l0,0.2L26,16.4l0,0.1l0.1,0.1l0.2,0.4l0.1,0.2
				l0.2,0.4l0.1,0.1l0.1,0.1l4.3,2.3l0.2,0.1l0.2-0.1l1.4-0.7l0.9-0.4l-0.9-0.4L28.9,17l0.4-0.2l4.9,2l0.2,0.1l0.2-0.1l1.7-0.8
				l1-0.5l-1-0.4l-4.2-1.6l0.7-0.3l4.9,1.8l0.2,0.1l0.2-0.1l1.4-0.7l1-0.5l-1-0.4l-4-1.5l2.8-1.4l0.4-0.2l-0.2-0.4L38,11.6l-0.1-0.2
				L37.7,11l-0.2-0.4l-0.4,0.2l-2.8,1.4L35.5,8L35.9,7z"/>
			<polygon class="st7" points="35,29.5 32.7,24.6 31.4,24.2 33.8,29.2 31.4,28.4 29.2,23.5 28.2,23.1 30.3,28 28.2,27.3 26.6,22.5 
				27,21.3 31,18.3 33.2,19 28.7,21.7 29.6,22 34.3,19.3 36.7,20 31.9,22.7 33.2,23.2 37.9,20.5 40,21.2 35.3,23.8 39,25 38.5,26.4 
				34.8,25.3 37.1,30.1 			"/>
			<path class="st6" d="M31.1,18.6l1.5,0.5l-4.5,2.7l1.5,0.5l4.7-2.8l1.8,0.6l-4.9,2.7l1.9,0.6l4.7-2.6l1.5,0.5l-4.7,2.6l4,1.3
				l-0.1,0.4l-0.1,0.2l-0.1,0.4l-4-1.3l2.3,4.9l-1.5-0.5l-2.3-4.9L31,23.8l2.4,5l-1.8-0.6l-2.2-5l-1.5-0.5l2.1,4.8l-1.5-0.5
				l-1.5-4.6l0.1-0.4l0.1-0.2l0.1-0.4L31.1,18.6z M31,18.1l-0.2,0.1l-3.9,2.9l-0.1,0.1l0,0.1l-0.1,0.4l-0.1,0.2l-0.1,0.4l0,0.1
				l0,0.1l1.5,4.6l0.1,0.2l0.2,0.1l1.5,0.5l1,0.3l-0.4-0.9l-1.7-3.9l0.4,0.1l2.1,4.8l0.1,0.2l0.2,0.1l1.8,0.6l1,0.3l-0.5-1l-1.9-4.1
				l0.7,0.2l2.2,4.7l0.1,0.2l0.2,0.1l1.5,0.5l1,0.3l-0.5-1l-1.8-3.9l2.9,0.9l0.4,0.1l0.1-0.4l0.1-0.4l0.1-0.2l0.1-0.4l0.1-0.4
				l-0.4-0.1l-2.9-0.9l3.8-2.1l0.9-0.5l-1-0.3L38,20.3l-0.2-0.1l-0.2,0.1l-4.5,2.5l-0.7-0.2l3.9-2.2l0.9-0.5l-1-0.3l-1.8-0.6
				L34.3,19l-0.2,0.1l-4.5,2.7l-0.4-0.1l3.6-2.2l0.9-0.5l-1-0.3l-1.5-0.5L31,18.1z"/>
			<polygon class="st7" points="24,36.4 26,31.3 25.4,30.1 23.3,35.3 22.3,33 24.4,28 24,27.1 21.9,31.9 20.9,29.9 23.4,25.5 
				24.5,25 29.4,25.9 30.3,27.7 25.3,26.4 25.8,27.3 31,28.9 32.1,31.1 26.8,29.4 27.3,30.7 32.5,32.3 33.4,34.4 28.3,32.7 30,36.2 
				28.6,36.8 26.9,33.4 25,38.4 			"/>
			<path class="st6" d="M24.5,25.2l4.8,0.9l0.6,1.3l-5-1.3l0.7,1.5l5.2,1.5l0.8,1.7l-5.3-1.7l0.9,1.8l5.1,1.7L33,34l-5.1-1.6
				l1.8,3.8l-0.4,0.2l-0.2,0.1l-0.4,0.2l-1.8-3.8l-2,5l-0.7-1.4l2-5l-0.9-1.8l-2.1,5.2L22.5,33l2.1-5L24,26.5l-2.1,4.8l-0.7-1.4
				l2.4-4.2l0.4-0.2l0.2-0.1L24.5,25.2z M24.4,24.7l-0.1,0.1L23.9,25L23.7,25l-0.4,0.2l-0.1,0.1l-0.1,0.1l-2.4,4.2l-0.1,0.2l0.1,0.2
				l0.7,1.4l0.4,0.9l0.4-0.9l1.7-3.9l0.2,0.4l-2,4.8L22,33l0.1,0.2l0.8,1.7l0.5,1l0.4-1l1.7-4.2l0.3,0.7l-1.9,4.8l-0.1,0.2l0.1,0.2
				l0.7,1.4l0.5,1l0.4-1l1.6-4l1.3,2.8l0.2,0.4l0.4-0.2l0.4-0.2l0.2-0.1l0.4-0.2l0.4-0.2l-0.2-0.4l-1.3-2.8l4.1,1.3l1,0.3l-0.5-1
				l-0.7-1.4l-0.1-0.2l-0.2-0.1l-5-1.6l-0.3-0.7l4.3,1.4l1,0.3l-0.5-1l-0.8-1.7l-0.1-0.2L31,28.6l-5-1.5l-0.2-0.4l4,1l1,0.2
				l-0.4-0.9l-0.6-1.3l-0.1-0.2l-0.2,0l-4.8-0.9L24.4,24.7z"/>
			<polygon class="st7" points="16.7,34.1 15.6,37.8 14.1,37.3 15.3,33.6 10.4,35.9 11.1,33.8 16,31.5 16.4,30.2 11.4,32.6 
				12.1,30.2 17.1,28 17.4,27 12.6,29.1 13.3,27 18.1,25.4 19.2,25.8 22.2,29.8 21.6,32 18.9,27.5 18.6,28.4 21.3,33.1 20.6,35.5 
				17.8,30.7 17.4,32 20.1,36.7 19.4,38.8 			"/>
			<path class="st6" d="M18.1,25.7l0.4,0.1l0.2,0.1l0.4,0.1l2.9,3.9l-0.5,1.6l-2.7-4.5l-0.5,1.5l2.8,4.7l-0.6,1.8l-2.7-4.9L17.2,32
				l2.6,4.7l-0.5,1.5l-2.6-4.7l-1.3,4L15,37.4l-0.2-0.1l-0.4-0.1l1.3-4l-4.9,2.3l0.5-1.5l4.9-2.3l0.6-1.9l-5,2.4l0.6-1.8l5-2.2
				l0.5-1.5L13,28.7l0.5-1.5L18.1,25.7z M18.1,25.2l-0.1,0l-4.6,1.5l-0.2,0.1L13,27l-0.5,1.5l-0.3,1l0.9-0.4l3.9-1.7l-0.1,0.4
				l-4.8,2.1L12,30l-0.1,0.2L11.3,32L11,33l1-0.5l4.1-1.9l-0.2,0.7l-4.7,2.2l-0.2,0.1l-0.1,0.2l-0.5,1.5l-0.3,1l1-0.5l3.9-1.8L14,37
				l-0.1,0.4l0.4,0.1l0.4,0.1l0.2,0.1l0.4,0.1l0.4,0.1l0.1-0.4l0.9-2.9l2.1,3.8l0.5,0.9l0.3-1l0.5-1.5l0.1-0.2l-0.1-0.2l-2.5-4.5
				l0.2-0.7l2.2,3.9l0.5,0.9l0.3-1l0.6-1.8l0.1-0.2l-0.1-0.2l-2.7-4.5l0.1-0.4l2.2,3.7l0.5,0.9l0.3-1l0.5-1.6l0.1-0.2l-0.1-0.2
				l-2.9-3.9l-0.1-0.1l-0.1,0l-0.4-0.1l-0.2-0.1l-0.4-0.1L18.1,25.2z"/>
			<polygon class="st7" points="7.7,26.9 4.3,28.6 3.6,27.3 7,25.5 2,23.7 4,22.7 9,24.5 10.3,23.9 5,22 7.3,20.8 12.3,22.8 
				13.2,22.3 8.4,20.4 10.3,19.4 14.8,21.7 15.4,22.8 14.6,27.7 12.6,28.8 13.9,23.7 13,24.1 11.7,29.4 9.4,30.6 11,25.2 9.7,25.8 
				8.3,31 6.3,32.1 			"/>
			<path class="st6" d="M10.3,19.7l4.3,2.2l0.2,0.4l0.1,0.2l0.2,0.4l-0.7,4.8l-1.5,0.8l1.4-5.1L12.8,24l-1.4,5.3l-1.7,0.9l1.5-5.4
				l-1.8,0.9l-1.5,5.2l-1.4,0.7l1.5-5.2l-3.7,1.9L4.2,28l-0.1-0.2l-0.2-0.4l3.7-1.9l-5.1-1.8L4,22.9l5.1,1.8l1.8-0.9L5.6,22l1.7-0.9
				l5.1,2l1.4-0.7l-4.9-1.9L10.3,19.7z M10.3,19.1l-0.2,0.1L8.7,20l-0.9,0.5l1,0.4l3.9,1.5l-0.4,0.2l-4.9-1.9l-0.2-0.1l-0.2,0.1
				l-1.7,0.9L4.5,22l1,0.4l4.2,1.5L9,24.2l-4.9-1.7l-0.2-0.1l-0.2,0.1l-1.4,0.7l-0.9,0.5l1,0.4l4.1,1.5L3.7,27l-0.4,0.2l0.2,0.4
				L3.7,28l0.1,0.2L4,28.5l0.2,0.4l0.4-0.2l2.8-1.4l-1.2,4.2l-0.3,1L6.8,32l1.4-0.7l0.2-0.1L8.5,31l1.4-5l0.7-0.3L9.4,30l-0.3,1
				l0.9-0.5l1.7-0.9l0.2-0.1l0.1-0.2l1.3-5.1l0.3-0.2l-1.1,4.1l-0.3,1l0.9-0.5l1.5-0.8l0.2-0.1l0-0.2l0.7-4.8l0-0.1l-0.1-0.1
				l-0.2-0.4L15.2,22l-0.2-0.4L15,21.5l-0.1-0.1l-4.3-2.2L10.3,19.1z"/>
			<polygon class="st7" points="8.6,20.4 13.1,17.7 12.1,17.4 7.4,20.2 5.1,19.4 9.9,16.7 8.6,16.3 3.9,18.9 1.8,18.2 6.5,15.6 
				2.8,14.4 3.3,13 6.9,14.2 4.6,9.3 6.8,10 9.1,14.9 10.4,15.3 8,10.3 10.4,11 12.6,16 13.6,16.3 11.5,11.5 13.6,12.2 15.1,17 
				14.8,18.1 10.7,21.1 			"/>
			<path class="st6" d="M5.1,9.7l1.5,0.5l2.3,4.9l1.9,0.6l-2.4-5l1.8,0.6l2.2,5l1.5,0.5l-2.1-4.8l1.5,0.5l1.5,4.6l-0.1,0.4l-0.1,0.2
				L14.6,18l-3.9,2.9l-1.5-0.5l4.5-2.7l-1.5-0.5L7.4,20l-1.8-0.6l4.9-2.7l-1.9-0.6l-4.7,2.6l-1.5-0.5l4.7-2.6l-4-1.3l0.1-0.4
				l0.1-0.2l0.1-0.4l4,1.3L5.1,9.7z M4.2,8.9l0.5,1l1.8,3.9l-2.9-0.9l-0.4-0.1L3,13.2l-0.1,0.4l-0.1,0.2l-0.1,0.4l-0.1,0.4l0.4,0.1
				l2.9,0.9l-3.8,2.1l-0.9,0.5l1,0.3l1.5,0.5l0.2,0.1l0.2-0.1l4.5-2.5l0.7,0.2L5.4,19l-0.9,0.5l1,0.3l1.8,0.6l0.2,0.1l0.2-0.1
				l4.5-2.7l0.4,0.1L8.9,20l-0.9,0.5l1,0.3l1.5,0.5l0.2,0.1l0.2-0.1l3.9-2.9l0.1-0.1l0-0.1l0.1-0.4l0.1-0.2l0.1-0.4l0-0.1l0-0.1
				l-1.5-4.6L13.8,12l-0.2-0.1L12,11.4l-1-0.3l0.4,0.9l1.7,3.9l-0.4-0.1L10.6,11l-0.1-0.2l-0.2-0.1l-1.8-0.6l-1-0.3l0.5,1l1.9,4.1
				l-0.7-0.2L7,10L6.9,9.8L6.7,9.7L5.2,9.3L4.2,8.9z"/>
			<polygon class="st7" points="12.6,13.6 11.8,11.6 16.7,13 16.3,12.1 11,10.6 9.9,8.4 15.2,10 14.6,8.8 9.4,7.2 8.5,5.2 13.6,6.7 
				11.9,3.3 13.2,2.6 15,6.1 16.8,1 17.8,3 16,8.1 16.6,9.3 18.5,4.1 19.6,6.3 17.6,11.4 18.1,12.3 20.1,7.5 21,9.4 18.7,13.9 
				17.6,14.4 			"/>
			<path class="st6" d="M16.9,1.6L17.6,3l-1.9,5.1l0.9,1.8l2-5.2l0.8,1.7l-2,5.1l0.7,1.5l2-4.8l0.6,1.3l-2.3,4.3l-0.4,0.2L18,14
				l-0.4,0.2l-4.8-0.8L12.2,12l5,1.3l-0.7-1.5l-5.3-1.4l-0.8-1.7l5.3,1.6l-0.9-1.8L9.6,7L8.9,5.6l5.2,1.5l-1.9-3.7l0.4-0.2l0.2-0.1
				l0.4-0.2L15,6.7L16.9,1.6z M16.8,0.4l-0.4,1l-1.5,4.1l-1.4-2.8l-0.2-0.4l-0.4,0.2l-0.4,0.2l-0.2,0.1L12,3l-0.4,0.2l0.2,0.4
				l1.4,2.8L9,5.1L8,4.8l0.5,1l0.7,1.4l0.1,0.2l0.2,0.1l5,1.5l0.3,0.7l-4.3-1.3L9.5,8l0.5,1l0.8,1.7l0.1,0.2l0.2,0.1l5.1,1.4
				l0.2,0.4l-4-1.1l-0.9-0.3l0.4,0.9l0.6,1.4l0.1,0.2l0.2,0l4.8,0.8l0.1,0l0.1-0.1l0.4-0.2l0.2-0.1l0.4-0.2l0.1-0.1l0.1-0.1l2.3-4.3
				l0.1-0.2l-0.1-0.2l-0.6-1.3L20.1,7l-0.4,0.9l-1.7,3.8l-0.2-0.4l1.9-4.9l0.1-0.2l-0.1-0.2L19,4.5l-0.5-1l-0.4,1l-1.6,4.2l-0.3-0.7
				L18,3.2L18.1,3L18,2.8l-0.7-1.4L16.8,0.4z"/>
			<path class="st6" d="M31.9,19.8c0,6-4.9,11-11,11c-6.1,0-11-4.9-11-11c0-6.1,4.9-11,11-11C27,8.8,31.9,13.7,31.9,19.8"/>
			<path class="st7" d="M31.4,19.8c0,5.8-4.7,10.4-10.5,10.4c-5.8,0-10.5-4.7-10.5-10.4c0-5.8,4.7-10.5,10.5-10.5
				C26.7,9.3,31.4,14,31.4,19.8"/>
			<path class="st6" d="M31,19.8c0,5.6-4.5,10.1-10.1,10.1c-5.6,0-10.1-4.5-10.1-10.1c0-5.6,4.5-10.1,10.1-10.1
				C26.5,9.7,31,14.2,31,19.8"/>
			<path class="st7" d="M30.3,19.8c0,5.2-4.2,9.4-9.4,9.4c-5.2,0-9.4-4.2-9.4-9.4c0-5.2,4.2-9.4,9.4-9.4
				C26.1,10.3,30.3,14.6,30.3,19.8"/>
			<path class="st7" d="M30.4,19.8c0,5.3-4.3,9.5-9.5,9.5c-5.3,0-9.5-4.3-9.5-9.5c0-5.3,4.3-9.5,9.5-9.5
				C26.2,10.3,30.4,14.5,30.4,19.8"/>
			<polygon class="st8" points="24.9,11.5 23.5,11.7 23.5,10 23.7,9.8 23.7,9.1 25,8.9 			"/>
			<path class="st9" d="M12.4,24l0-2.5l0.2-0.3v-1.5l0.4-0.2V16c0,0,0.6-1.1,0.9-1.1c0.3,0,0.2,0.3,0.3,0.3c0.1,0,0.3-0.2,0.3-0.2
				l0.8-1h0.3v-1c0,0,0-0.3,0.2-0.3H16v-0.3h-0.2v-0.2H16v-0.4h0.4v0.4h0.2v0.2h-0.2v0.3l0.3,0.3v0.9c0,0,0,0.1,0.1,0.3
				c0.2,0.1,1.3,1.2,1.3,1.2h0.2c0,0,0-0.1,0.2-0.1c0.1,0,0.5,0.5,0.6,0.8c0,0.2,0,4.1,0,4.1l0.2,0.2H20v-1.5c0,0,0.2-0.5,0.3-0.7
				c0.1-0.2,0.2-0.3,0.2-0.3v-3.6H21V14h-0.2v-0.4l2.8-2.7v-0.8h0.5V9.8L24,9.7c0,0-0.2,0-0.2-0.2c0-0.2,0.3-0.2,0.3-0.2V9.1
				c0,0,0.1-0.1,0.2-0.1c0.1,0,0.1,0.1,0.1,0.1v0.2c0,0,0.2,0,0.2,0.1c0,0.1,0,0.2,0,0.2s-0.1,0-0.1,0.1v0.5h0.3v1.1l2.8,2.4v4.6
				c0,0-3-0.8-3.1-0.9c-0.1-0.1-0.1-0.4-0.1-0.4s0,0.1-0.1,0c-0.1-0.1-0.1,0.1-0.1,0.1h-0.4l0-0.4l0.2-0.1l0-0.4h0.4l0-1.3l-0.2,0
				c0,0-0.3,0.2-0.4,0.2c-0.2,0-0.4-0.2-0.3-0.5c0.1-0.3,0.1-0.5,0.1-0.5l0.4,0l0,0.4l0.5,0l0-0.2c0,0,0-0.6-0.1-0.6
				c-0.1-0.1-2.4,0.4-2.5,0.5c-0.1,0.1,0,0.3,0,0.3v2.7h-0.3V16c0,0,0-0.1-0.2-0.1c-0.2,0-0.4,0-0.4-0.1c0-0.1,0.1-0.2,0.2-0.2
				c0.1,0,0.1-0.1,0.1-0.1l0-0.1c0,0-0.1,0-0.1-0.2c0-0.1,0.1-0.2,0.2-0.2c0.1,0,0.1-0.1,0.1-0.1l0-0.3c0,0-0.3,0-0.4,0
				c-0.1,0.1-0.2,0.2-0.2,0.2v0.2v2.8c0,0,0.1,0.1,0.2,0.1l0.1,0.1c0,0,0.2-0.1,0.5-0.2c0.3-0.1,0.5-0.1,0.5-0.1v-2.7
				c0,0,0.2-0.1,0.2-0.2c0-0.1,0.1-0.1,0.1-0.1v-0.3h0.4c0,0,0.3,0.2,0.3,0.3c0.1,0.1,0.1,0.2,0,0.3c-0.1,0-0.1,0.1-0.1,0.1v0.2h0.1
				v-0.1h0.3v0.1l0.1,0.1v1.3c0,0,0.1,0,0.1,0.2c0,0.2,0,0.4,0,0.4s0.1,0,0.3,0.2c0.1,0.2,0.1,0.3,0.1,0.3v0.1h0.9l2.7,0.8v1.8
				c0,0,0.1,0.1,0.2,0.1c0.2,0,0.7-0.6,0.7-0.6v-1.3c0,0,0-0.1,0.2-0.1c0.2,0,0.2,0.2,0.2,0.2v1c0,0,0.3,0,0.5,0.1
				c0.2,0.1,0.5,0.2,0.5,0.4c0,0.2,0,0.3,0,0.3l0,1.6c0,0-0.1,0.6-0.4,1.2C29.4,24,29,24.7,29,24.7v-1.3c0,0-0.1-0.2-0.4-0.2
				c-0.2,0-0.4,0.3-0.4,0.3v2c0,0,0,0.1-0.2,0.2c-0.1,0.1-0.2,0.1-0.2,0.1h-1.4c0,0-0.4,0-0.5,0.1c-0.1,0-0.2,0.2-0.3,0.3
				c-0.1,0-0.3,0-0.5,0.1c-0.1,0.1-0.4,0.3-0.4,0.3h-1.2v0.2c0,0,0.2,0.3,0,0.5c-0.2,0.2-0.1,0.3-0.4,0.3c-0.3,0-0.4-0.1-0.4-0.4
				c0-0.2,0.2-0.4,0.2-0.4l0-0.1h-1.7v0.1c0,0,0.2,0.1,0.3,0.2c0.1,0.1,0,0.2,0,0.2c0,0-0.1,0.1-0.3,0.2l-0.2,0v0.1
				c0,0,0.1,0,0.1,0.1v0.9c0,0-0.1,0.1-0.1,0.2c0,0.1,0,0.7,0,0.7s-0.4,0-0.7,0c-0.2,0-0.6,0-0.6,0l0-0.5c0,0-0.1-0.1-0.1-0.3
				c0-0.2,0.1-0.4,0.1-0.4l0-0.3c0,0-0.1-0.1-0.1-0.4c0-0.3,0-0.4,0.1-0.5c0.1-0.1,0.2-0.1,0.3-0.1c0.1,0,0.7,0,0.7,0v-0.1
				c0,0-0.2,0-0.3-0.2c0-0.2,0.2-0.1,0.2-0.1h2.8v-0.1c0,0-2.8-0.1-3.1-0.1c-0.3,0-0.9-0.3-0.9-0.8s0.3-0.5,0.6-0.5
				c0.2,0,0.3,0.1,0.4,0.1c0,0.1,0.1,0.1,0.1,0.3c0,0.1-0.1,0.3-0.1,0.3s0,0,0,0.1c0.1,0.1,0.1,0.1,0.4,0.1c0.3,0,3.2,0,3.2,0v-2
				c0,0-0.9,0.2-0.9-0.3c0-0.5,0.9-0.5,0.9-0.5l0-0.2c0,0-1,0.3-1-0.4c0-0.7,0.9-0.3,1-0.5c0.1-0.2,0-0.1,0-0.1v-0.3
				c0,0-0.7,0.1-0.9,0c-0.2-0.1-0.1-0.4,0.1-0.6c0.1-0.2,0.3-0.2,0.3-0.2h0.5v-1.8c0,0,0-0.1-0.1-0.1c-0.1,0-2.3,0.4-2.7,0.5
				c-0.4,0.1-0.5,0.1-0.4,0.3c0.1,0.1,0.1,0.2,0.2,0.2c0.1,0,0.1-0.2,0.4-0.2c0.3,0,0.5,0.1,0.5,0.4c0,0.3-0.1,0.3-0.1,0.3l-0.4,0
				l-0.3,0l0-0.2h-0.2c0,0,0,0.2-0.2,0.4c-0.3,0.1-0.4,0.2-0.4,0.2l0,0.1l0,0.2h-1c0,0-0.8-0.1-0.9-0.1c-0.1,0-0.3-0.2-0.4-0.3
				c-0.1-0.1-0.1-0.3-0.3-0.3c-0.1,0-0.3,0.4-0.5,0.5c-0.2,0.2-0.3,0.3-0.7,0.3c-0.3,0-0.8-0.3-0.8-0.5c0-0.2,0-0.3,0-0.3
				s-0.6,0.1-1,0.2c-0.3,0.1-0.5,0.1-0.5,0.1v0.1c0,0,0.6,0,0.6,0.3c0,0.4-0.4,0.5-0.8,0.5c-0.4,0-1-0.1-1-0.5
				c0-0.4,0.4-0.3,0.4-0.3l0-0.4l2.2-0.4v-0.2L13,20c0,0,0,0,0,0.3c0,0.2,0,1,0,1s0.2,0,0.2,0.2c0,0.2-0.3,0.3-0.3,0.3v1.5
				c0,0,0.3,0.1,0.5,0.3c0.2,0.2,0.2,0.3,0.2,0.4c0,0.1,0,0.3,0,0.3h0.1c0,0,0.1-0.4,0.5-0.4c0.4,0,0.6,0.4,0.5,0.8
				c0,0.4-0.3,0.7-0.6,0.7c-0.3,0-0.4-0.3-0.5-0.4c-0.1-0.1-0.4,0.2-0.4,0.2s-0.2-0.2-0.4-0.6C12.5,24.3,12.4,24,12.4,24"/>
			<path class="st9" d="M16,21.3c-0.2,0-0.5,0.2-0.7,0.3c-0.2,0-0.3-0.3-0.5-0.3c-0.2,0-0.9,0.2-1,0.4c-0.1,0.2,0,0.4,0.1,0.5
				c0.1,0.1,0.1,0.2,0.1,0.3c-0.1,0.1-0.2,0.1-0.2,0.3c0,0.2,0.1,0.2,0.2,0.3c0,0.1-0.1,0.3-0.1,0.5c0,0.2,0.1,0.3,0.3,0.3
				c0.2,0,0.2-0.3,0.4-0.3c0.2-0.1,0.2-0.1,0.3,0c0.1,0.1-0.1,0.3-0.1,0.3s-0.2,0.4,0.3,0.4c0.5,0,0.7-0.3,0.7-0.6
				c0-0.3-0.3-0.3-0.3-0.3s0-0.1,0-0.2c0-0.1,0.2-0.2,0.4-0.3c0.2,0,0.6-0.3,0.6-0.7C16.7,21.7,16.6,21.3,16,21.3"/>
			<path class="st9" d="M17.8,21.4c0,0.2-0.2,0.4-0.5,0.4c-0.3,0-0.5-0.2-0.5-0.4c0-0.2,0.2-0.4,0.5-0.4
				C17.6,21,17.8,21.2,17.8,21.4"/>
			<path class="st9" d="M17.3,22.1c0,0-0.3-0.1-0.3,0.1c-0.1,0.2-0.1,0.3-0.1,0.9c0,0.5,0,0.7,0.2,0.7c0.3,0,0.3-0.6,0.3-1
				C17.4,22.4,17.4,22.1,17.3,22.1"/>
			<path class="st9" d="M17.1,23.8c0,0,1.4,2.2,1.6,2.4c0.1,0.2,0.3,0.5,0.2,0.6c-0.1,0.1-0.3,0.1-1.1,0.1h-2.1c0,0-0.4-0.3-0.1-0.4
				c0.3,0,2.7,0,2.7-0.1c0-0.1-0.8-1.4-0.9-1.4c-0.1-0.1-0.1,0.1-0.1,0.3c0,0.2,0,0.3,0,0.3s0.1,0,0.3,0.1c0.2,0.1,0.1,0.2,0.1,0.4
				c0,0.1,0,0.3-0.3,0.3c-0.3,0-0.2-0.3-0.2-0.3L17.1,26c0,0,0,0.1-0.1,0.1c-0.1,0-0.2-0.1-0.2-0.3c0-0.2,0.1-0.3,0.1-0.3l-0.1,0
				c0,0-0.5,0.6-0.6,0.7c-0.1,0.1-0.5,0-0.3-0.4c0.2-0.4,1-2,1-2H17.1z"/>
			<path class="st9" d="M15.6,26.2c0,0.2-0.2,0.4-0.4,0.4c-0.2,0-0.4-0.2-0.4-0.4V26c0-0.2,0.2-0.4,0.4-0.4c0.2,0,0.4,0.2,0.4,0.4
				V26.2z"/>
			<path class="st9" d="M23.8,19.8c0,0.3-0.3,0.5-0.6,0.5c-0.3,0-0.6-0.2-0.6-0.5c0-0.3,0.3-0.5,0.6-0.5
				C23.5,19.3,23.8,19.6,23.8,19.8"/>
			<path class="st9" d="M22.6,27.7c0,0.3-0.2,0.6-0.5,0.6c-0.3,0-0.5-0.2-0.5-0.6c0-0.3,0.2-0.6,0.5-0.6
				C22.4,27.2,22.6,27.4,22.6,27.7"/>
			<path class="st9" d="M21.9,28.3c0-0.2,0.2-0.4,0.4-0.4c0.2,0,0.4,0.2,0.4,0.4v0.3c0,0.2-0.2,0.4-0.4,0.4c-0.2,0-0.4-0.2-0.4-0.4
				V28.3z"/>
			<path class="st9" d="M22.8,20.8c0,0.3-0.2,0.5-0.5,0.5H22c-0.3,0-0.5-0.2-0.5-0.5c0-0.3,0.2-0.5,0.5-0.5h0.4
				C22.6,20.4,22.8,20.6,22.8,20.8"/>
			<path class="st9" d="M21.8,21.4c0,0.3,0.2,0.6,0.6,0.6h0.4c0.3,0,0.6-0.2,0.6-0.6c0-0.3-0.2-0.6-0.6-0.6h-0.4
				C22.1,20.8,21.8,21.1,21.8,21.4"/>
			<path class="st9" d="M19.9,21.1c0,0-0.2-0.2-0.5-0.2c-0.3,0-0.4,0.4-0.4,0.4s-0.5,0-0.7,0.1c-0.2,0.1-0.3,0.7,0.2,0.7
				c0.5,0,1-0.3,1-0.3s0.4,0,0.4-0.3c0-0.3-0.1-0.2-0.1-0.2S19.9,21.2,19.9,21.1"/>
			<path class="st9" d="M21.4,21.8H20c0,0,0,0.4-0.3,0.5c-0.2,0.1-0.9,0.1-1.1,0.2c-0.2,0.1,0.1,0.6,0.2,0.6h0.4l0,0.2h-0.2v0.5h0.6
				c0,0,0,0.2,0.2,0.4c0.2,0.2,0.4,0.2,0.4,0.2h0.9l0,0.1c0,0-0.2,0-0.2,0.2c-0.1,0.3-0.1,0.9,1.2,0.9c1.2-0.1,1.4-0.9,1.2-1.1
				c-0.1-0.2-0.2-0.3-0.5-0.3c-0.3,0-0.5,0.2-0.5,0.2h-0.4c0,0-0.1,0,0-0.1c0.1-0.1,0.3-0.3,0.3-0.6c0-0.3-0.1-0.3-0.1-0.3v-0.1
				c0,0,0.4,0.1,0.4-0.4c0-0.5-0.3-0.5-0.6-0.5c-0.4,0-0.5,0.6-0.5,0.6s0,0-0.1,0.1c-0.1,0.1-1,0.1-1.2,0.1c-0.2,0-0.4,0-0.4,0
				l0-0.1c0,0,0.2,0,0.7-0.2c0.5-0.1,1-0.4,1-0.7C21.5,22,21.4,21.8,21.4,21.8"/>
			<path class="st9" d="M24.3,15.9c0,0.1-0.1,0.2-0.3,0.2h-0.1c-0.1,0-0.3-0.1-0.3-0.2c0-0.1,0.1-0.2,0.3-0.2H24
				C24.2,15.7,24.3,15.8,24.3,15.9"/>
			<path class="st7" d="M14.3,24.7c0,0.1-0.1,0.2-0.2,0.2c-0.1,0-0.2-0.1-0.2-0.2v0c0-0.1,0.1-0.2,0.2-0.2
				C14.2,24.4,14.3,24.5,14.3,24.7L14.3,24.7z"/>
			<path class="st7" d="M13,24.2c0,0.1-0.1,0.1-0.1,0.1c-0.1,0-0.1-0.1-0.1-0.1v-0.1c0-0.1,0.1-0.1,0.1-0.1C13,24,13,24.1,13,24.2
				L13,24.2z"/>
			<path class="st7" d="M14.6,22.5C14.6,22.6,14.6,22.6,14.6,22.5l-0.3,0.1c-0.1,0-0.1,0-0.1-0.1c0-0.1,0-0.1,0.1-0.1L14.6,22.5
				C14.6,22.5,14.6,22.5,14.6,22.5"/>
			<path class="st7" d="M20.8,22.4C20.8,22.4,20.7,22.5,20.8,22.4l-0.4,0.1c-0.1,0-0.1,0-0.1-0.1c0-0.1,0-0.1,0.1-0.1L20.8,22.4
				C20.7,22.3,20.8,22.3,20.8,22.4"/>
			<path class="st7" d="M20.9,27.6c0,0.1,0,0.1-0.1,0.1h-0.5c-0.1,0-0.1-0.1-0.1-0.1c0-0.1,0.1-0.1,0.1-0.1h0.5
				C20.9,27.5,20.9,27.6,20.9,27.6"/>
			<path class="st7" d="M24.3,22.3C24.3,22.3,24.2,22.4,24.3,22.3l-0.3,0.1c0,0-0.1,0-0.1-0.1s0-0.1,0.1-0.1L24.3,22.3
				C24.2,22.2,24.3,22.2,24.3,22.3"/>
			<path class="st7" d="M16.2,22.2c-0.1-0.1-0.3,0-0.5,0c-0.2,0-0.3,0.4-0.3,0.4s0.2,0.1,0.3,0.1C15.8,22.6,16.3,22.3,16.2,22.2"/>
			<rect x="17.1" y="24.8" class="st7" width="0.2" height="0.2"/>
			<rect x="21.7" y="23.8" class="st7" width="0.2" height="0.2"/>
			<rect x="21.5" y="23.9" class="st7" width="0.3" height="0.1"/>
			<rect x="21.3" y="24" class="st7" width="0.4" height="0.1"/>
			<rect x="20.2" y="23.7" class="st7" width="0.3" height="0.1"/>
			<rect x="20.2" y="24" class="st7" width="0.5" height="0.1"/>
			<path class="st7" d="M22.2,25v-0.2c0,0-0.4,0.1-0.5,0c-0.1-0.1-0.1-0.1-0.3-0.1c-0.2,0-0.4,0.3-0.2,0.4c0.3,0.1,0.3,0.2,0.6,0.1
				C22.2,25.1,22.2,25,22.2,25"/>
			<path class="st7" d="M16.1,13.8c0,0.1-0.1,0.2-0.2,0.2c-0.1,0-0.2-0.1-0.2-0.2v-0.5c0-0.1,0.1-0.2,0.2-0.2c0.1,0,0.2,0.1,0.2,0.2
				V13.8z"/>
			<path class="st7" d="M16.1,14.7h-0.1c0,0-0.2,0.4-0.2,0.6c0,0.2,0.3,0.2,0.3,0.1C16.2,15.3,16.1,14.7,16.1,14.7"/>
			<path class="st7" d="M14.9,15.1l-0.4,0.4c0,0,0.1,0.1,0.3,0.1C15,15.6,14.9,15.2,14.9,15.1"/>
			<path class="st7" d="M16.9,17.6c0,0,0-0.5,0.3-0.6c0.3-0.1,0.4,0.2,0.4,0.2v-0.4c0,0,0-0.2-0.3-0.2
				C16.8,16.7,16.9,17.6,16.9,17.6"/>
			<path class="st7" d="M17,18.4c0,0,0.1,0.3,0.3,0.3c0.2,0,0.3-0.1,0.3-0.1v0.2c0,0-0.1,0.1-0.3,0.1C16.8,18.9,17,18.4,17,18.4"/>
			<path class="st7" d="M15,16.2c0,0,0.5,0.9,0.5,1.1c0,0.2,0,0.2-0.2,0.2c-0.2,0-0.2-0.2-0.2-0.2v0.3c0,0,0.2-0.1,0.3,0.1
				c0.1,0.2,0.1,1.2,0.1,1.2s0,0.1-0.2,0.1c-0.2,0-0.2-0.2-0.2-0.2l-0.1,0c0,0,0,0.1-0.1,0.2c-0.2,0.1-0.5,0.1-0.7,0.1
				C14,19.1,14,19,14,19v-2c0,0,0.1-0.2,0.2-0.2c0.1,0,0.5,0,0.5,0s0-0.1-0.1-0.3c-0.1-0.2-0.1-0.2-0.3-0.2c-0.2,0-0.2,0-0.3,0.2
				c0,0.1,0,0.3-0.1,0.4c-0.1,0.1-0.2,0.2-0.2,0.3c0,0.1-0.1,0.1-0.2,0.1c-0.1,0-0.2-0.2-0.2-0.4c0.1-0.2,0.1-0.2,0.1-0.2l0-0.2
				h-0.2v3l2.4-0.4c0,0,0.1-3,0-3.1C15.6,16,15,16.2,15,16.2"/>
			<polygon class="st7" points="16.3,15.6 18.4,16.3 18.4,16.4 16.3,15.7 			"/>
			<path class="st8" d="M26.2,16.7c0,0.2-0.1,0.3-0.3,0.3c-0.2,0-0.3-0.1-0.3-0.3v-1.3c0-0.2,0.1-0.3,0.3-0.3c0.2,0,0.3,0.1,0.3,0.3
				V16.7z"/>
			<path class="st8" d="M29,22.7c0,0.1-0.1,0.1-0.1,0.1h-0.6c-0.1,0-0.1-0.1-0.1-0.1v-0.5c0-0.1,0.1-0.1,0.1-0.1h0.6
				c0.1,0,0.1,0.1,0.1,0.1V22.7z"/>
			<path class="st8" d="M29,21.4c0,0.1-0.1,0.1-0.1,0.1h-0.6c-0.1,0-0.1,0-0.1-0.1v-0.5c0-0.1,0.1-0.1,0.1-0.1h0.6
				c0.1,0,0.1,0,0.1,0.1V21.4z"/>
			<polygon class="st8" points="20.5,19 20.5,18.8 24.2,18.1 24.7,18.1 27.3,18.9 27.3,19 24.7,18.3 24.2,18.3 			"/>
			<polygon class="st8" points="23.3,17.2 23.3,17.4 22.5,17.6 22.5,17.4 			"/>
			<path class="st9" d="M18.5,23.8v1.1c0,0,0.1,0,0.2,0c0.2,0,0.3-0.5,0.3-0.8c0-0.3-0.1-0.4-0.3-0.4S18.5,23.8,18.5,23.8"/>
			<path class="st9" d="M16.4,23.7c0.2,0.1,0,0.5-0.1,0.6c-0.1,0.1-0.3,0.2-0.3-0.2C15.8,23.9,16.2,23.6,16.4,23.7"/>
			<path class="st8" d="M20.9,20C20.9,20,20.9,20,20.9,20l-0.5,0c0,0,0,0,0,0v-0.2c0,0,0,0,0,0h0.4c0,0,0,0,0,0V20z"/>
			<path class="st8" d="M21,18.5C21,18.5,21,18.5,21,18.5l-0.2,0c0,0,0,0,0,0v-0.4c0,0,0,0,0,0H21c0,0,0,0,0,0V18.5z"/>
			<path class="st8" d="M14.3,20.8C14.3,20.9,14.3,20.9,14.3,20.8l-0.2,0c0,0,0,0,0,0v-0.1c0,0,0,0,0,0L14.3,20.8
				C14.3,20.8,14.3,20.8,14.3,20.8L14.3,20.8z"/>
			<path class="st8" d="M20.7,28.4C20.7,28.4,20.7,28.4,20.7,28.4l-0.2,0c0,0,0,0,0,0v-0.1c0,0,0,0,0,0h0.2c0,0,0,0,0,0V28.4z"/>
			<path class="st8" d="M22.6,21.5C22.6,21.5,22.6,21.5,22.6,21.5l-0.2,0c0,0,0,0,0,0v-0.1c0,0,0,0,0,0h0.2c0,0,0,0,0,0V21.5z"/>
			<path class="st8" d="M27,13.5h-0.5c0,0,0.1-0.3,0.3-0.3C26.9,13.2,27,13.5,27,13.5"/>
			<polygon class="st8" points="24.1,10.6 24.1,11.1 23.8,11.1 24,10.6 			"/>
			<polygon class="st8" points="23.1,12 22.3,12.6 22.4,12.7 23.1,12.1 			"/>
			<path class="st8" d="M22.1,13.2h-0.4l-0.3,0.3c0,0-0.1,0,0.1,0.1c0.2,0,0.5-0.1,0.5-0.1L22.1,13.2z"/>
			<path class="st8" d="M22.2,13.9C22.2,13.9,22.2,13.9,22.2,13.9l-0.2,0c0,0,0,0,0,0v-0.1c0,0,0,0,0,0L22.2,13.9
				C22.2,13.8,22.2,13.8,22.2,13.9L22.2,13.9z"/>
			<path class="st8" d="M22.7,13.7v0.2l0.4-0.1c0,0,0.1-0.1,0.2-0.2c0.1-0.1,0.2-0.1,0.2-0.1v-0.1h-0.8V13.7z"/>
			<path class="st8" d="M24,11.8h0.2v1.3c0,0-0.2,0.2-0.4,0.2c-0.2,0-0.5,0-0.5,0s0.1-0.1,0.1-0.3c0.1-0.2,0-0.2,0-0.2
				s0.5,0.1,0.5-0.1c0-0.2,0.1-0.3,0.1-0.3h-0.2l0.1-0.3l0.2,0V11.8z"/>
		</g>
		<g class="st5">
			<defs>
				<path id="SVGID_5_" d="M11.4,19.8c0,5.2,4.2,9.5,9.5,9.5c5.2,0,9.5-4.2,9.5-9.5c0-5.2-4.2-9.5-9.5-9.5
					C15.7,10.3,11.4,14.6,11.4,19.8"/>
			</defs>
			<clipPath id="SVGID_6_">
				<use xlink:href="#SVGID_5_"  style="overflow:visible;"/>
			</clipPath>
			<path class="st10" d="M14.3,26.8c0,0.2-0.2,0.3-0.3,0.3c-0.2,0-0.3-0.2-0.3-0.3v-0.1c0-0.2,0.2-0.3,0.3-0.3
				c0.2,0,0.3,0.2,0.3,0.3V26.8z"/>
			<path class="st10" d="M17.6,28.7c0,0.3-0.2,0.5-0.5,0.5c-0.3,0-0.5-0.2-0.5-0.5v-0.4c0-0.3,0.2-0.5,0.5-0.5
				c0.3,0,0.5,0.2,0.5,0.5V28.7z"/>
			<path class="st10" d="M15.8,27.5c0,0.3-0.2,0.5-0.5,0.5h-0.6c-0.3,0-0.5-0.2-0.5-0.5c0-0.3,0.2-0.5,0.5-0.5h0.6
				C15.6,27,15.8,27.2,15.8,27.5"/>
			<path class="st10" d="M27.4,27.4c0,0-0.2-0.8-0.5-0.7c-0.3,0.1-1.3,0.7-1.6,0.7c-0.2,0-0.5-0.1-0.6,0.1c-0.1,0.1,0,0.4-0.1,0.4
				c-0.1,0-0.2-0.2-0.7-0.2c-0.5,0-0.8,0.1-0.8,0.7c0,0.6,0.4,1.1,0.4,1.1s1.8-0.6,2.3-0.8C26.3,28.4,27.4,27.4,27.4,27.4"/>
		</g>
	</g>
</g>
</svg>
