<?xml version="1.0" encoding="utf-8"?>
<!-- Generator: Adobe Illustrator 19.1.0, SVG Export Plug-In . SVG Version: 6.00 Build 0)  -->
<svg version="1.1" id="Layer_1" xmlns="http://www.w3.org/2000/svg" xmlns:xlink="http://www.w3.org/1999/xlink" x="0px" y="0px"
	 viewBox="0 0 327.2 84.2" style="enable-background:new 0 0 327.2 84.2;" xml:space="preserve">
<style type="text/css">
	.st0{fill:#005F9E;}
	.st1{fill:#B8142E;}
</style>
<g>
	<path class="st0" d="M95.7,18.2h8.5l6.9,11.2l6.9-11.2h8.5v29h-8V30.5l-7.4,11.4h-0.2l-7.4-11.3v16.6h-7.9V18.2z"/>
	<path class="st0" d="M140.1,18.2h8.1v10v19h-8.1V18.2z"/>
	<path class="st0" d="M159.6,42.9l4.5-5.3c2.9,2.3,6.1,3.5,9.4,3.5c2.2,0,3.3-0.7,3.3-2v-0.1c0-1.2-1-1.9-4.9-2.8
		C165.7,34.7,161,33,161,27v-0.1c0-5.4,4.3-9.3,11.2-9.3c4.9,0,8.8,1.3,11.9,3.9l-4,5.7c-2.7-1.9-5.6-2.9-8.1-2.9
		c-1.9,0-2.9,0.8-2.9,1.9v0.1c0,1.3,1,1.9,5,2.8c6.7,1.5,10.8,3.6,10.8,9v0.1c0,5.9-4.7,9.5-11.7,9.5
		C168,47.7,163.2,46.1,159.6,42.9z"/>
	<path class="st0" d="M194.5,42.9l4.5-5.3c2.9,2.3,6.1,3.5,9.4,3.5c2.2,0,3.3-0.7,3.3-2v-0.1c0-1.2-1-1.9-4.9-2.8
		c-6.2-1.4-10.9-3.2-10.9-9.1v-0.1c0-5.4,4.3-9.3,11.2-9.3c4.9,0,8.8,1.3,11.9,3.9l-4,5.7c-2.7-1.9-5.6-2.9-8.1-2.9
		c-1.9,0-2.9,0.8-2.9,1.9v0.1c0,1.3,1,1.9,5,2.8c6.7,1.5,10.8,3.6,10.8,9v0.1c0,5.9-4.7,9.5-11.7,9.5
		C203,47.7,198.1,46.1,194.5,42.9z"/>
	<path class="st0" d="M232.2,18.2h8.1v10v19h-8.1V18.2z"/>
	<path class="st0" d="M252.9,32.8L252.9,32.8c0-8.4,6.7-15.2,15.7-15.2c9,0,15.6,6.7,15.6,15v0.1c0,8.3-6.7,15.1-15.7,15.1
		C259.5,47.8,252.9,41.1,252.9,32.8z M275.9,32.8L275.9,32.8c0-4.3-3-7.9-7.5-7.9c-4.4,0-7.3,3.6-7.3,7.8v0.1c0,4.2,3,7.8,7.4,7.8
		C273,40.5,275.9,36.9,275.9,32.8z"/>
	<path class="st0" d="M296.6,18.2h7.5L316,33.5V18.2h8v29h-7l-12.4-15.9v15.9h-8V18.2z"/>
</g>
<g>
	<path class="st1" d="M105.2,70.6l-3.9-5.2h-3.8v5.2H96V57.3h5.7c2.9,0,4.8,1.6,4.8,4c0,2.2-1.5,3.5-3.6,3.9l4.1,5.4H105.2z
		 M101.6,58.7h-4.1v5.4h4.1c2,0,3.4-1,3.4-2.8C105,59.7,103.8,58.7,101.6,58.7z"/>
	<path class="st1" d="M120.3,58.7h-8.1v4.6h7.3v1.4h-7.3v4.7h8.2v1.4h-9.7V57.3h9.6V58.7z"/>
	<path class="st1" d="M129.2,63.3c3,0.6,4.3,1.7,4.3,3.8c0,2.3-1.9,3.8-4.6,3.8c-2.1,0-3.8-0.7-5.4-2.1l0.9-1.1
		c1.4,1.3,2.7,1.9,4.6,1.9c1.8,0,3-0.9,3-2.3c0-1.3-0.7-2-3.5-2.6c-3.1-0.7-4.5-1.7-4.5-3.9c0-2.1,1.8-3.7,4.4-3.7
		c1.9,0,3.3,0.6,4.7,1.6l-0.9,1.2c-1.2-1-2.5-1.4-3.8-1.4c-1.7,0-2.8,1-2.8,2.2C125.6,61.9,126.3,62.6,129.2,63.3z"/>
	<path class="st1" d="M142.3,70.6h-1.5V58.7h-4.5v-1.4h10.5v1.4h-4.5V70.6z"/>
	<path class="st1" d="M161.3,70.6h-1.6l-1.6-3.5h-7.3l-1.6,3.5h-1.5l6.1-13.4h1.4L161.3,70.6z M154.5,59l-3,6.8h6.1L154.5,59z"/>
	<path class="st1" d="M175.3,65c0,3.9-2.2,5.9-5.6,5.9c-3.3,0-5.5-2-5.5-5.8v-7.8h1.5V65c0,2.9,1.5,4.5,4.1,4.5c2.5,0,4-1.5,4-4.4
		v-7.8h1.5V65z"/>
	<path class="st1" d="M189,70.6l-3.9-5.2h-3.8v5.2h-1.5V57.3h5.7c2.9,0,4.8,1.6,4.8,4c0,2.2-1.5,3.5-3.6,3.9l4.1,5.4H189z
		 M185.4,58.7h-4.1v5.4h4.1c2,0,3.4-1,3.4-2.8C188.8,59.7,187.6,58.7,185.4,58.7z"/>
	<path class="st1" d="M207,70.6h-1.6l-1.6-3.5h-7.3l-1.6,3.5h-1.5l6.1-13.4h1.4L207,70.6z M200.2,59l-3,6.8h6.1L200.2,59z"/>
	<path class="st1" d="M220.3,57.3h1.5v13.3h-1.2L212,59.7v10.9h-1.5V57.3h1.4l8.4,10.7V57.3z"/>
	<path class="st1" d="M231.6,70.6h-1.5V58.7h-4.5v-1.4h10.5v1.4h-4.5V70.6z"/>
	<path class="st1" d="M251.3,63.3c3,0.6,4.3,1.7,4.3,3.8c0,2.3-1.9,3.8-4.6,3.8c-2.1,0-3.8-0.7-5.4-2.1l0.9-1.1
		c1.4,1.3,2.7,1.9,4.6,1.9c1.8,0,3-0.9,3-2.3c0-1.3-0.7-2-3.5-2.6c-3.1-0.7-4.5-1.7-4.5-3.9c0-2.1,1.8-3.7,4.4-3.7
		c1.9,0,3.3,0.6,4.7,1.6l-0.9,1.2c-1.2-1-2.5-1.4-3.8-1.4c-1.7,0-2.8,1-2.8,2.2C247.7,61.9,248.4,62.6,251.3,63.3z"/>
	<path class="st1" d="M270.5,65c0,3.9-2.2,5.9-5.6,5.9c-3.3,0-5.5-2-5.5-5.8v-7.8h1.5V65c0,2.9,1.5,4.5,4.1,4.5c2.5,0,4-1.5,4-4.4
		v-7.8h1.5V65z"/>
	<path class="st1" d="M279.8,65.9h-3.2v4.7h-1.5V57.3h5c3,0,5,1.6,5,4.2C285,64.5,282.6,65.9,279.8,65.9z M279.9,58.7h-3.4v5.9h3.3
		c2.2,0,3.7-1.2,3.7-3C283.5,59.7,282.1,58.7,279.9,58.7z"/>
	<path class="st1" d="M293.5,65.9h-3.2v4.7h-1.5V57.3h5c3,0,5,1.6,5,4.2C298.7,64.5,296.3,65.9,293.5,65.9z M293.6,58.7h-3.4v5.9
		h3.3c2.2,0,3.7-1.2,3.7-3C297.2,59.7,295.8,58.7,293.6,58.7z"/>
	<path class="st1" d="M302.4,57.3h1.5v11.9h7.5v1.4h-9V57.3z"/>
	<path class="st1" d="M318.4,70.6h-1.5v-5.3l-5.5-8.1h1.8l4.5,6.7l4.5-6.7h1.8l-5.5,8V70.6z"/>
</g>
<g>
	<path class="st1" d="M70.8,79.6l9-9L46.6,37.3l25.7-25.7c1.2,3.6,2.1,11-6,19.1L57,39.7c-0.8,0.8-0.8,2,0,2.8c0.8,0.8,2,0.8,2.8,0
		l9.3-9.1C82.6,19.9,74.7,7.1,74.6,7l-1.3-2.1L40.9,37.3l33.3,33.3L70.8,74L37.5,40.7L7.8,70.4l8.8,8.8l22.8-22.8
		c0.8-0.8,0.8-2,0-2.8c-0.8-0.8-2-0.8-2.8,0l-20,20l-3.2-3.2l24.1-24.1L70.8,79.6z"/>
	<path class="st1" d="M29.3,38.5c1.4,0,2.5-0.3,2.6-0.3c1.1-0.3,1.7-1.4,1.4-2.4c-0.3-1.1-1.4-1.7-2.4-1.4c0,0-3.2,0.8-5.2-1.2
		L9,16.6c-0.8-0.8-2-0.8-2.8,0c-0.8,0.8-0.8,2,0,2.8L22.8,36C24.9,38.1,27.4,38.5,29.3,38.5z"/>
	<path class="st1" d="M25.2,27.6c0.4,0.4,0.9,0.6,1.4,0.6c0.5,0,1-0.2,1.4-0.6c0.8-0.8,0.8-2,0-2.8L14.4,11.2c-0.8-0.8-2-0.8-2.8,0
		c-0.8,0.8-0.8,2,0,2.8L25.2,27.6z"/>
	<path class="st1" d="M33.7,25.2c2,2,1.2,5.1,1.2,5.2c-0.3,1.1,0.4,2.1,1.4,2.4c1.1,0.3,2.1-0.3,2.4-1.4c0-0.1,0.3-1.1,0.3-2.6
		c0-1.9-0.5-4.4-2.5-6.5L19.9,5.7c-0.8-0.8-2-0.8-2.8,0c-0.8,0.8-0.8,2,0,2.8L33.7,25.2z"/>
</g>
</svg>
