<?xml version="1.0" encoding="utf-8"?>
<!-- Generator: Adobe Illustrator 19.0.0, SVG Export Plug-In . SVG Version: 6.00 Build 0)  -->
<svg version="1.1" id="Layer_1" xmlns="http://www.w3.org/2000/svg" xmlns:xlink="http://www.w3.org/1999/xlink" x="0px" y="0px"
	 viewBox="0 0 155.2 32" style="enable-background:new 0 0 155.2 32;" xml:space="preserve">
<style type="text/css">
	.st0{fill:none;}
	.st1{fill:#273475;}
	.st2{font-family:'GillSans-Light';}
	.st3{font-size:27.9957px;}
	.st4{font-size:23.3298px;}
	.st5{clip-path:url(#SVGID_2_);}
	.st6{clip-path:url(#SVGID_4_);fill:#182A63;}
	.st7{clip-path:url(#SVGID_4_);fill:#FFFFFE;}
	.st8{clip-path:url(#SVGID_4_);fill:#FFFFFF;}
	.st9{clip-path:url(#SVGID_4_);fill:#C6093B;}
	.st10{clip-path:url(#SVGID_6_);fill:#C6093B;}
</style>
<rect x="14.1" y="7.7" class="st0" width="161.9" height="40.3"/>
<text transform="matrix(1 0 0 1 35.1328 26.8379)"><tspan x="0" y="0" class="st1 st2 st3">M</tspan><tspan x="21.9" y="0" class="st1 st2 st4">ISSION</tspan><tspan x="90.7" y="0" class="st1 st2 st3">RS</tspan></text>
<g>
	<g>
		<defs>
			<rect id="SVGID_1_" x="-0.1" y="-1.1" width="33.6" height="33.6"/>
		</defs>
		<clipPath id="SVGID_2_">
			<use xlink:href="#SVGID_1_"  style="overflow:visible;"/>
		</clipPath>
		<g class="st5">
			<defs>
				<rect id="SVGID_3_" x="-0.1" y="-1.1" width="33.6" height="33.6"/>
			</defs>
			<clipPath id="SVGID_4_">
				<use xlink:href="#SVGID_3_"  style="overflow:visible;"/>
			</clipPath>
			<path class="st6" d="M30.2,16c0,7.4-6,13.5-13.5,13.5c-7.4,0-13.5-6-13.5-13.5c0-7.4,6-13.5,13.5-13.5C24.1,2.5,30.2,8.6,30.2,16
				"/>
			<polygon class="st7" points="18,11.1 15.6,7.8 16.1,6.1 18.3,9.7 18.6,9 16.3,5.1 16.9,3.2 19.2,7.1 19.5,6.1 17.4,2.3 17.9,0.5 
				20.1,4.3 21,1.4 22.2,1.7 21.2,4.7 25.2,2.8 24.6,4.6 20.7,6.5 20.3,7.5 24.4,5.6 23.8,7.5 19.7,9.3 19.5,10.1 23.4,8.4 
				22.8,10.1 19,11.4 			"/>
			<path class="st6" d="M18,1l2.1,3.8l1-3.2l0.3,0.1l0.2,0.1l0.3,0.1l-1,3.2l4-1.9l-0.4,1.2l-4,1.9L20,7.9l4.1-1.9l-0.5,1.4l-4,1.8
				l-0.4,1.3l3.9-1.7L22.7,10L19,11.2l-0.3-0.1L18.5,11l-0.3-0.1l-2.3-3.2l0.4-1.2l2.2,3.7l0.4-1.3l-2.2-3.8L17,3.7l2.2,3.9l0.5-1.5
				l-2.1-3.8L18,1z M24.1,5.9L24.1,5.9 M17.9,0.1l-0.3,0.8l-0.4,1.2l0,0.2l0.1,0.1l2.1,3.7l-0.2,0.6l-1.8-3.2l-0.4-0.8l-0.3,0.8
				L16.2,5l-0.1,0.2l0.1,0.1L18.4,9l-0.1,0.3l-1.8-2.9l-0.4-0.7l-0.3,0.8l-0.4,1.2l-0.1,0.2L15.5,8l2.3,3.2l0.1,0.1l0.1,0l0.3,0.1
				l0.2,0.1l0.3,0.1l0.1,0l0.1,0l3.7-1.2l0.2-0.1l0.1-0.2l0.4-1.2l0.3-0.8l-0.8,0.3l-3.1,1.4l0.1-0.3l3.9-1.7l0.2-0.1L24,7.5
				l0.5-1.4l0.3-0.8l-0.8,0.4l-3.3,1.6l0.2-0.6l3.8-1.8l0.1-0.1l0-0.2l0.4-1.2l0.3-0.8l-0.8,0.4l-3.2,1.5L22.3,2l0.1-0.4L22,1.5
				l-0.3-0.1l-0.2-0.1l-0.3-0.1l-0.4-0.1l-0.1,0.4L20,3.9l-1.7-3.1L17.9,0.1z"/>
			<polygon class="st7" points="21.5,14.1 21.1,13.2 21.8,9.2 23.4,8.4 22.3,12.5 23,12.1 24.2,7.9 26.1,7 24.7,11.3 25.7,10.8 
				27,6.6 28.7,5.8 27.4,10 30.2,8.6 30.7,9.7 27.9,11.1 32,12.7 30.4,13.5 26.3,11.9 25.3,12.4 29.5,14 27.7,14.9 23.6,13.2 
				22.8,13.6 26.8,15.2 25.1,16 			"/>
			<path class="st6" d="M28.4,6.2l-1.3,4.2l3-1.5l0.1,0.3l0.1,0.2l0.1,0.3l-3,1.5l4.1,1.6l-1.2,0.6l-4.1-1.6l-1.5,0.7L29,14
				l-1.4,0.7L23.6,13l-1.2,0.6l3.9,1.6l-1.2,0.6l-3.5-1.9l-0.1-0.3l-0.1-0.2l-0.1-0.3L22,9.3l1.2-0.6L22,12.8l1.2-0.6L24.4,8
				l1.4-0.7l-1.3,4.3l1.5-0.7l1.3-4.2L28.4,6.2z M29,5.5l-0.8,0.4L27,6.4l-0.1,0.1l0,0.2l-1.2,4L25,10.9l1.1-3.5l0.3-0.8L25.6,7
				l-1.4,0.7l-0.2,0.1l0,0.2L22.9,12l-0.3,0.1l0.9-3.3L23.7,8L23,8.4L21.8,9l-0.2,0.1l0,0.2l-0.7,3.9l0,0.1l0.1,0.1l0.1,0.3l0.1,0.2
				l0.1,0.3l0.1,0.1l0.1,0.1l3.5,1.9l0.2,0.1l0.2-0.1l1.2-0.6l0.7-0.4l-0.8-0.3l-3.2-1.3l0.3-0.1l3.9,1.6l0.2,0.1l0.2-0.1l1.4-0.7
				L30,14l-0.8-0.3l-3.4-1.3l0.5-0.3l3.9,1.5l0.2,0.1l0.1-0.1l1.2-0.6l0.8-0.4l-0.8-0.3l-3.3-1.3l2.3-1.1L31,9.8l-0.2-0.3l-0.1-0.3
				L30.6,9l-0.1-0.3l-0.2-0.3l-0.3,0.2l-2.3,1.1l1-3.4L29,5.5z"/>
			<polygon class="st7" points="28.3,23.7 26.4,19.7 25.3,19.4 27.3,23.5 25.3,22.9 23.5,18.8 22.8,18.6 24.5,22.5 22.7,21.9 
				21.5,18 21.8,17.1 25.1,14.7 26.8,15.2 23.1,17.4 23.9,17.7 27.7,15.4 29.7,16 25.7,18.2 26.8,18.6 30.6,16.5 32.3,17 28.5,19.1 
				31.5,20.1 31.1,21.3 28.1,20.3 30,24.3 			"/>
			<path class="st6" d="M25.1,14.9l1.2,0.4l-3.7,2.2l1.3,0.4l3.8-2.2l1.4,0.5l-3.9,2.2l1.5,0.5l3.8-2.1l1.2,0.4L28,19.2l3.2,1
				l-0.1,0.3l-0.1,0.2L31,21l-3.2-1l1.9,4l-1.2-0.4l-1.9-4L25,19.1l1.9,4.1l-1.4-0.5l-1.8-4l-1.3-0.4l1.7,3.9l-1.2-0.4L21.7,18
				l0.1-0.3l0.1-0.2l0.1-0.3L25.1,14.9z M25,14.5l-0.2,0.1l-3.2,2.3L21.6,17l0,0.1l-0.1,0.3l-0.1,0.2l-0.1,0.3l0,0.1l0,0.1l1.2,3.7
				l0.1,0.2l0.2,0.1l1.2,0.4l0.8,0.3L24.5,22l-1.4-3.1l0.3,0.1l1.7,3.9l0.1,0.2l0.2,0.1l1.4,0.5l0.8,0.3L27.3,23l-1.6-3.3l0.6,0.2
				l1.8,3.8l0.1,0.1l0.2,0l1.2,0.4l0.8,0.3L30,23.8l-1.5-3.2l2.4,0.8l0.4,0.1l0.1-0.4l0.1-0.3l0.1-0.2l0.1-0.3l0.1-0.4l-0.4-0.1
				L29,19.1l3.1-1.7l0.8-0.4L32,16.7l-1.2-0.4l-0.2,0l-0.1,0.1l-3.7,2l-0.6-0.2l3.2-1.8l0.8-0.4l-0.8-0.3l-1.4-0.5l-0.2-0.1
				l-0.1,0.1l-3.7,2.2l-0.3-0.1l2.9-1.8l0.7-0.4l-0.8-0.3l-1.2-0.4L25,14.5z"/>
			<polygon class="st7" points="19.4,29.3 21,25.2 20.5,24.2 18.8,28.4 17.9,26.6 19.7,22.5 19.3,21.8 17.6,25.7 16.9,24 18.8,20.5 
				19.7,20 23.7,20.8 24.5,22.2 20.4,21.2 20.8,22 25,23.2 25.9,25.1 21.6,23.7 22.1,24.7 26.2,26 27,27.7 22.8,26.3 24.2,29.2 
				23.1,29.7 21.7,26.9 20.1,30.9 			"/>
			<path class="st6" d="M19.7,20.2l3.9,0.7l0.5,1l-4-1l0.6,1.2l4.2,1.2l0.6,1.4l-4.3-1.4l0.7,1.5l4.2,1.3l0.6,1.2L22.5,26l1.4,3.1
				l-0.3,0.1l-0.2,0.1l-0.3,0.1l-1.4-3.1l-1.6,4.1l-0.6-1.2l1.6-4.1l-0.7-1.5l-1.7,4.2l-0.6-1.4l1.7-4.1l-0.6-1.2l-1.7,3.9L17.1,24
				l1.9-3.4l0.3-0.1l0.2-0.1L19.7,20.2z M19.7,19.9l-0.1,0.1L19.3,20l-0.2,0.1l-0.3,0.1l-0.1,0.1l-0.1,0.1l-1.9,3.4L16.6,24l0.1,0.2
				l0.6,1.2l0.4,0.7l0.3-0.8l1.4-3.1l0.1,0.3l-1.7,3.9l-0.1,0.2l0.1,0.2l0.6,1.4l0.4,0.8l0.3-0.8l1.3-3.4l0.3,0.5l-1.5,3.9l-0.1,0.2
				l0.1,0.1l0.6,1.2l0.4,0.8l0.3-0.8l1.3-3.3l1.1,2.3l0.2,0.3l0.3-0.2l0.3-0.1l0.2-0.1l0.3-0.1l0.3-0.2l-0.2-0.3l-1.1-2.3l3.3,1.1
				l0.8,0.3L27,27.2L26.4,26l-0.1-0.1l-0.2,0l-4-1.3L21.9,24l3.5,1.1l0.8,0.3l-0.4-0.8l-0.6-1.4l-0.1-0.2L25,23l-4.1-1.2l-0.2-0.3
				l3.3,0.8l0.8,0.2l-0.4-0.7l-0.5-1l-0.1-0.2l-0.2,0l-3.9-0.7L19.7,19.9z"/>
			<polygon class="st7" points="13.5,27.5 12.5,30.5 11.3,30.1 12.3,27.1 8.3,29 8.9,27.2 12.8,25.4 13.2,24.3 9.1,26.2 9.7,24.3 
				13.8,22.5 14,21.7 10.1,23.4 10.7,21.7 14.6,20.4 15.5,20.7 17.9,24 17.4,25.8 15.2,22.1 14.9,22.9 17.2,26.7 16.6,28.6 
				14.3,24.7 14,25.7 16.1,29.6 15.6,31.3 			"/>
			<path class="st6" d="M14.6,20.6l0.3,0.1l0.2,0.1l0.3,0.1l2.3,3.2l-0.4,1.3l-2.2-3.7l-0.4,1.3l2.2,3.8l-0.5,1.4l-2.2-3.9l-0.5,1.5
				l2.1,3.8l-0.4,1.2L13.4,27l-1,3.2l-0.3-0.1l-0.2-0.1L11.6,30l1-3.2l-4,1.9L9,27.4l4-1.9l0.5-1.5l-4.1,1.9l0.5-1.4l4-1.8l0.4-1.3
				l-3.9,1.7l0.4-1.2L14.6,20.6z M14.6,20.2l-0.1,0l-3.7,1.2l-0.2,0.1l-0.1,0.2L10.1,23l-0.3,0.8l0.8-0.3l3.1-1.4l-0.1,0.3l-3.9,1.7
				l-0.2,0.1l-0.1,0.2l-0.5,1.4l-0.3,0.8l0.8-0.4l3.3-1.6l-0.2,0.6L8.9,27l-0.1,0.1l0,0.2l-0.4,1.2L8,29.3L8.8,29l3.2-1.5l-0.8,2.4
				l-0.1,0.4l0.4,0.1l0.3,0.1l0.2,0.1l0.3,0.1l0.4,0.1l0.1-0.4l0.8-2.4l1.7,3.1l0.4,0.8l0.3-0.8l0.4-1.2l0-0.2l-0.1-0.1l-2.1-3.7
				l0.2-0.6l1.8,3.2l0.4,0.8l0.3-0.8l0.5-1.4l0.1-0.2l-0.1-0.1l-2.2-3.7l0.1-0.3l1.8,3l0.4,0.7l0.3-0.8l0.4-1.3l0.1-0.2L18,23.8
				l-2.3-3.2l-0.1-0.1l-0.1,0l-0.3-0.1L15,20.4l-0.3-0.1L14.6,20.2z"/>
			<polygon class="st7" points="6.1,21.6 3.4,23 2.8,21.9 5.6,20.5 1.5,19 3.1,18.2 7.2,19.7 8.2,19.2 3.9,17.6 5.8,16.7 9.9,18.3 
				10.6,17.9 6.7,16.4 8.3,15.5 11.9,17.4 12.3,18.3 11.7,22.3 10.1,23.2 11.2,19 10.4,19.4 9.3,23.7 7.5,24.6 8.8,20.3 7.8,20.8 
				6.6,25 5,25.8 			"/>
			<path class="st6" d="M8.3,15.8l3.5,1.8l0.2,0.3L12,18l0.2,0.3l-0.6,3.9l-1.2,0.6l1.1-4.1l-1.2,0.6l-1.1,4.3l-1.3,0.7l1.2-4.3
				l-1.4,0.7l-1.2,4.2l-1.2,0.6l1.2-4.2l-3,1.5l-0.2-0.3l-0.1-0.2L3.1,22l3-1.5L1.9,19l1.2-0.6l4.1,1.5l1.4-0.7l-4.3-1.5l1.3-0.7
				l4.1,1.6l1.2-0.6l-4-1.6L8.3,15.8z M8.3,15.3l-0.2,0.1L6.9,16l-0.7,0.4L7,16.7l3.2,1.3l-0.3,0.1l-4-1.5l-0.2-0.1l-0.1,0.1
				l-1.3,0.7l-0.8,0.4L4.3,18l3.4,1.2l-0.5,0.3l-4-1.4L3.1,18l-0.1,0.1l-1.2,0.6L1,19.1l0.8,0.3l3.3,1.2l-2.2,1.2l-0.3,0.2l0.2,0.3
				l0.2,0.3L3,22.7L3.1,23l0.2,0.3l0.3-0.2L5.8,22l-1,3.4l-0.2,0.8l0.8-0.4l1.2-0.6l0.1-0.1l0-0.2l1.2-4.1l0.5-0.3l-1,3.5L7.2,25
				L8,24.6l1.3-0.7l0.1-0.1l0-0.2l1.1-4.1l0.3-0.1L10,22.7l-0.2,0.8l0.7-0.4l1.2-0.6l0.2-0.1l0-0.2l0.6-3.9l0-0.1l-0.1-0.1l-0.2-0.3
				l-0.1-0.2l-0.2-0.3L12,17.3l-0.1-0.1l-3.5-1.8L8.3,15.3z"/>
			<polygon class="st7" points="6.9,16.4 10.5,14.2 9.7,13.9 5.9,16.2 4,15.6 7.9,13.4 6.9,13 3,15.2 1.3,14.6 5.1,12.5 2.1,11.5 
				2.5,10.4 5.5,11.3 3.6,7.4 5.3,7.9 7.2,11.9 8.3,12.2 6.4,8.1 8.3,8.7 10.1,12.8 10.9,13 9.2,9.1 10.9,9.7 12.1,13.6 11.9,14.5 
				8.6,16.9 			"/>
			<path class="st6" d="M4,7.7l1.2,0.4l1.9,4l1.5,0.5L6.7,8.4l1.4,0.5l1.8,4l1.3,0.4L9.5,9.4l1.2,0.4l1.2,3.7l-0.1,0.3l-0.1,0.2
				l-0.1,0.3l-3.2,2.3l-1.2-0.4l3.7-2.2l-1.3-0.4L5.9,16l-1.4-0.5l3.9-2.2l-1.5-0.5L3,15l-1.2-0.4l3.8-2.1l-3.2-1l0.1-0.3l0.1-0.2
				l0.1-0.3l3.2,1L4,7.7z M3.3,7l0.4,0.8L5.1,11l-2.4-0.8l-0.4-0.1l-0.1,0.4l-0.1,0.3L2.1,11L2,11.3l-0.1,0.4l0.4,0.1l2.4,0.8
				l-3.1,1.7l-0.8,0.4l0.8,0.3l1.2,0.4l0.2,0l0.1-0.1l3.7-2.1l0.6,0.2l-3.2,1.8l-0.8,0.4l0.8,0.3l1.4,0.5l0.2,0.1l0.1-0.1l3.7-2.2
				l0.3,0.1L7.1,16l-0.7,0.4l0.8,0.3l1.2,0.4l0.2,0.1L8.8,17l3.2-2.3l0.1-0.1l0-0.1l0.1-0.3l0.1-0.2l0.1-0.3l0-0.1l0-0.1l-1.2-3.7
				L11,9.5l-0.2-0.1L9.6,9.1L8.8,8.8l0.3,0.8l1.4,3.1l-0.3-0.1L8.5,8.7L8.4,8.6L8.3,8.5L6.8,8.1L6,7.8l0.4,0.8l1.6,3.3l-0.6-0.2
				L5.6,7.9L5.5,7.8l-0.2,0L4.1,7.3L3.3,7z"/>
			<polygon class="st7" points="10.1,10.9 9.4,9.2 13.4,10.3 13.1,9.6 8.8,8.4 7.9,6.6 12.2,7.9 11.7,6.9 7.5,5.6 6.7,4 10.9,5.3 
				9.5,2.5 10.6,1.9 12,4.7 13.5,0.6 14.3,2.2 12.8,6.4 13.3,7.4 14.9,3.1 15.8,4.9 14.2,9.1 14.5,9.8 16.2,5.9 16.9,7.5 15,11.1 
				14.2,11.5 			"/>
			<path class="st6" d="M13.6,1.1l0.6,1.2l-1.5,4.1l0.7,1.5l1.6-4.2l0.7,1.4L14,9.1l0.6,1.2l1.7-3.9l0.5,1.1l-1.8,3.5l-0.3,0.1
				l-0.2,0.1l-0.3,0.1l-3.9-0.6L9.8,9.5l4,1.1l-0.6-1.2L8.9,8.3L8.3,6.9l4.3,1.3l-0.7-1.5L7.7,5.5L7.1,4.3l4.2,1.2l-1.5-3l0.3-0.1
				l0.2-0.1l0.3-0.1l1.5,3L13.6,1.1z M13.5,0.2L13.2,1L12,4.3L10.9,2l-0.2-0.3l-0.3,0.2L10.1,2L9.9,2.1L9.6,2.2L9.3,2.4l0.2,0.3
				L10.6,5L7.2,4L6.4,3.7l0.4,0.8l0.6,1.2l0.1,0.1l0.2,0l4,1.2l0.3,0.5l-3.5-1L7.5,6.3l0.4,0.8l0.7,1.4l0.1,0.2l0.2,0l4.1,1.1
				l0.1,0.3L9.9,9.2L9.1,9l0.3,0.7l0.5,1.2L10,11l0.2,0l3.9,0.6l0.1,0l0.1-0.1l0.3-0.1l0.2-0.1l0.3-0.1l0.1-0.1l0.1-0.1l1.8-3.5
				l0.1-0.2l-0.1-0.2l-0.5-1.1l-0.4-0.7l-0.3,0.8l-1.3,3.1L14.4,9l1.6-4L16,4.9l-0.1-0.2l-0.7-1.4l-0.4-0.8l-0.3,0.8l-1.3,3.4
				L13,6.3l1.5-4l0.1-0.2l-0.1-0.1l-0.6-1.2L13.5,0.2z"/>
			<path class="st6" d="M25.7,15.9c0,4.9-4,8.9-8.9,8.9c-4.9,0-8.9-4-8.9-8.9c0-4.9,4-8.9,8.9-8.9C21.7,7,25.7,10.9,25.7,15.9"/>
			<path class="st7" d="M25.3,15.9c0,4.7-3.8,8.5-8.5,8.5c-4.7,0-8.5-3.8-8.5-8.5c0-4.7,3.8-8.5,8.5-8.5
				C21.5,7.4,25.3,11.2,25.3,15.9"/>
			<path class="st6" d="M25,15.9c0,4.5-3.7,8.2-8.2,8.2c-4.5,0-8.2-3.7-8.2-8.2c0-4.5,3.7-8.2,8.2-8.2C21.3,7.7,25,11.3,25,15.9"/>
			<path class="st7" d="M24.5,15.9c0,4.2-3.4,7.7-7.7,7.7c-4.2,0-7.7-3.4-7.7-7.7c0-4.2,3.4-7.7,7.7-7.7
				C21.1,8.2,24.5,11.6,24.5,15.9"/>
			<path class="st7" d="M24.6,15.9c0,4.3-3.5,7.7-7.7,7.7c-4.3,0-7.7-3.5-7.7-7.7c0-4.3,3.5-7.7,7.7-7.7
				C21.1,8.1,24.6,11.6,24.6,15.9"/>
			<polygon class="st8" points="20.1,9.1 18.9,9.3 18.9,7.9 19.1,7.7 19.1,7.2 20.2,7 			"/>
			<path class="st9" d="M9.9,19.3l0-2.1l0.2-0.3v-1.2l0.3-0.2v-2.8c0,0,0.5-0.9,0.7-0.9c0.2,0,0.2,0.3,0.3,0.3
				c0.1,0,0.2-0.2,0.2-0.2l0.6-0.8h0.2v-0.8c0,0,0-0.3,0.1-0.3h0.2V9.9h-0.1V9.8h0.1V9.4h0.3v0.3h0.2v0.2h-0.1v0.2l0.2,0.3v0.7
				c0,0,0,0.1,0.1,0.2c0.1,0.1,1.1,0.9,1.1,0.9h0.1c0,0,0-0.1,0.1-0.1s0.4,0.4,0.5,0.6c0,0.2,0,3.4,0,3.4l0.1,0.1h0.7V15
				c0,0,0.2-0.4,0.3-0.5c0.1-0.1,0.2-0.3,0.2-0.3v-2.9h0.3v-0.1h-0.1v-0.3l2.3-2.2V8h0.4V7.7l-0.1-0.1c0,0-0.2,0-0.2-0.1
				c0-0.1,0.3-0.1,0.3-0.1V7.2c0,0,0.1-0.1,0.2-0.1c0.1,0,0.1,0.1,0.1,0.1v0.2c0,0,0.1,0,0.2,0.1c0,0.1,0,0.2,0,0.2s-0.1,0-0.1,0V8
				H20V9l2.3,1.9v3.8c0,0-2.4-0.7-2.5-0.7c-0.1-0.1-0.1-0.3-0.1-0.3s0,0-0.1,0c-0.1,0-0.1,0.1-0.1,0.1h-0.3l0-0.3l0.1,0l0-0.3h0.3
				l0-1.1l-0.2,0c0,0-0.2,0.2-0.4,0.2c-0.1,0-0.3-0.2-0.3-0.4c0-0.3,0.1-0.4,0.1-0.4l0.3,0l0,0.3l0.4,0l0-0.1c0,0,0-0.5-0.1-0.5
				c-0.1,0-1.9,0.3-2,0.4c-0.1,0.1,0,0.2,0,0.2v2.2h-0.2v-1c0,0,0-0.1-0.2-0.1c-0.2,0-0.3,0-0.3-0.1c0-0.1,0.1-0.2,0.1-0.2
				c0.1,0,0.1-0.1,0.1-0.1l0-0.1c0,0-0.1,0-0.1-0.1c0-0.1,0.1-0.2,0.2-0.2c0.1,0,0.1-0.1,0.1-0.1l0-0.3c0,0-0.2,0-0.3,0
				c-0.1,0-0.1,0.2-0.1,0.2v0.2v2.3c0,0,0.1,0.1,0.1,0.1l0.1,0c0,0,0.2-0.1,0.4-0.1c0.2-0.1,0.4-0.1,0.4-0.1v-2.2
				c0,0,0.1-0.1,0.2-0.1c0-0.1,0.1-0.1,0.1-0.1v-0.3h0.3c0,0,0.2,0.2,0.3,0.3c0.1,0.1,0.1,0.2,0,0.2c0,0-0.1,0.1-0.1,0.1v0.2h0.1
				v-0.1h0.2v0.1l0,0v1.1c0,0,0.1,0,0.1,0.1c0,0.1,0,0.3,0,0.3s0.1,0,0.2,0.1c0.1,0.1,0.1,0.2,0.1,0.2v0.1h0.7l2.2,0.7v1.5
				c0,0,0.1,0.1,0.2,0.1c0.1,0,0.6-0.5,0.6-0.5v-1.1c0,0,0-0.1,0.2-0.1c0.1,0,0.2,0.1,0.2,0.1v0.8c0,0,0.3,0,0.4,0.1
				c0.1,0.1,0.4,0.2,0.4,0.3c0,0.1,0,0.3,0,0.3l0,1.3c0,0-0.1,0.5-0.3,0.9c-0.2,0.6-0.5,1.1-0.5,1.1v-1c0,0-0.1-0.2-0.3-0.1
				c-0.2,0-0.3,0.2-0.3,0.2v1.6c0,0,0,0.1-0.1,0.2c-0.1,0.1-0.2,0.1-0.2,0.1h-1.1c0,0-0.4,0-0.4,0c-0.1,0-0.1,0.2-0.2,0.2
				c-0.1,0-0.3,0-0.4,0.1c-0.1,0.1-0.3,0.2-0.3,0.2h-0.9v0.2c0,0,0.1,0.2,0,0.4c-0.2,0.1-0.1,0.2-0.4,0.2c-0.3,0-0.3-0.1-0.3-0.3
				c0-0.2,0.2-0.4,0.2-0.4l0-0.1h-1.4v0.1c0,0,0.2,0,0.3,0.1c0.1,0.1,0,0.2,0,0.2c0,0-0.1,0.1-0.2,0.1l-0.1,0V22c0,0,0.1,0,0.1,0.1
				v0.8c0,0-0.1,0.1-0.1,0.2c0,0.1,0,0.6,0,0.6s-0.4,0-0.5,0c-0.2,0-0.5,0-0.5,0l0-0.4c0,0-0.1-0.1-0.1-0.3c0-0.2,0.1-0.3,0.1-0.3
				l0-0.2c0,0-0.1-0.1-0.1-0.3c0-0.3,0-0.3,0.1-0.4c0.1-0.1,0.1-0.1,0.2-0.1c0.1,0,0.5,0,0.5,0v-0.1c0,0-0.2,0-0.2-0.2
				c0-0.2,0.2-0.1,0.2-0.1h2.3V21c0,0-2.2-0.1-2.5-0.1c-0.2,0-0.7-0.2-0.7-0.6c0-0.4,0.3-0.4,0.4-0.4c0.2,0,0.3,0.1,0.3,0.1
				c0,0.1,0.1,0.1,0.1,0.2c0,0.1-0.1,0.2-0.1,0.2s0,0,0,0.1c0.1,0.1,0.1,0.1,0.3,0.1c0.2,0,2.6,0,2.6,0V19c0,0-0.7,0.1-0.7-0.3
				c0-0.4,0.7-0.4,0.7-0.4l0-0.2c0,0-0.8,0.3-0.8-0.3c0-0.6,0.7-0.2,0.8-0.4c0.1-0.2,0-0.1,0-0.1v-0.2c0,0-0.6,0.1-0.7,0
				c-0.1-0.1-0.1-0.3,0-0.5c0.1-0.1,0.3-0.1,0.3-0.1h0.4V15c0,0,0,0-0.1,0c-0.1,0-1.9,0.3-2.2,0.4c-0.3,0.1-0.4,0.1-0.3,0.2
				c0.1,0.1,0.1,0.1,0.2,0.1c0.1,0,0.1-0.2,0.3-0.2c0.3,0,0.4,0.1,0.4,0.3c0,0.2-0.1,0.3-0.1,0.3l-0.4,0l-0.3,0l0-0.2H17
				c0,0,0,0.2-0.2,0.3c-0.2,0.1-0.4,0.2-0.4,0.2l0,0.1l0,0.1h-0.8c0,0-0.7-0.1-0.8-0.1c-0.1,0-0.3-0.2-0.4-0.3
				c-0.1-0.1-0.1-0.2-0.2-0.2c-0.1,0-0.3,0.3-0.4,0.4c-0.1,0.1-0.3,0.2-0.6,0.2c-0.3,0-0.6-0.2-0.7-0.4c0-0.2,0-0.2,0-0.2
				s-0.5,0.1-0.8,0.1c-0.3,0.1-0.4,0.1-0.4,0.1v0c0,0,0.5,0,0.5,0.3c0,0.3-0.3,0.4-0.7,0.4c-0.3,0-0.8-0.1-0.8-0.4
				c0-0.3,0.3-0.3,0.3-0.3l0-0.3l1.8-0.3v-0.1L10.4,16c0,0,0,0,0,0.2c0,0.2,0,0.8,0,0.8s0.1,0,0.1,0.2c0,0.1-0.3,0.3-0.3,0.3v1.2
				c0,0,0.2,0.1,0.4,0.2c0.1,0.1,0.2,0.2,0.2,0.3c0,0.1,0,0.3,0,0.3h0.1c0,0,0.1-0.3,0.4-0.3c0.4,0,0.5,0.3,0.4,0.6
				c0,0.3-0.2,0.6-0.5,0.6c-0.3,0-0.3-0.3-0.4-0.3c-0.1-0.1-0.3,0.2-0.3,0.2s-0.1-0.2-0.3-0.5C10,19.5,9.9,19.3,9.9,19.3"/>
			<path class="st9" d="M12.9,17.1c-0.1,0-0.4,0.2-0.5,0.2c-0.2,0-0.2-0.2-0.4-0.2c-0.2,0-0.7,0.1-0.8,0.3c-0.1,0.2,0,0.3,0.1,0.4
				c0.1,0.1,0.1,0.2,0.1,0.2c-0.1,0-0.1,0.1-0.1,0.3c0,0.2,0.1,0.1,0.1,0.2c0,0.1,0,0.3-0.1,0.4c0,0.2,0.1,0.3,0.3,0.3
				c0.2,0,0.2-0.2,0.3-0.3c0.1-0.1,0.2-0.1,0.3,0c0.1,0.1-0.1,0.3-0.1,0.3s-0.1,0.3,0.2,0.3c0.4,0,0.6-0.2,0.6-0.5
				c0-0.2-0.2-0.3-0.2-0.3s0-0.1,0-0.1c0-0.1,0.2-0.2,0.3-0.2c0.1,0,0.5-0.2,0.5-0.6C13.4,17.4,13.4,17.1,12.9,17.1"/>
			<path class="st9" d="M14.3,17.2c0,0.2-0.2,0.3-0.4,0.3c-0.2,0-0.4-0.2-0.4-0.3c0-0.2,0.2-0.3,0.4-0.3
				C14.2,16.8,14.3,17,14.3,17.2"/>
			<path class="st9" d="M13.9,17.7c0,0-0.2-0.1-0.3,0c-0.1,0.1-0.1,0.3-0.1,0.7c0,0.4,0,0.6,0.2,0.6c0.2,0,0.2-0.5,0.3-0.8
				C14,17.9,14,17.8,13.9,17.7"/>
			<path class="st9" d="M13.8,19.1c0,0,1.2,1.8,1.3,1.9c0.1,0.2,0.2,0.4,0.1,0.5c-0.1,0.1-0.3,0.1-0.9,0.1h-1.7c0,0-0.3-0.3-0.1-0.3
				c0.2,0,2.2,0,2.2-0.1c0-0.1-0.6-1.1-0.7-1.2c-0.1,0-0.1,0.1-0.1,0.2c0,0.1,0,0.2,0,0.2s0.1,0,0.2,0.1c0.1,0.1,0.1,0.2,0.1,0.3
				c0,0.1,0,0.3-0.2,0.3c-0.2,0-0.2-0.3-0.2-0.3l0,0c0,0,0,0.1-0.1,0.1c-0.1,0-0.2-0.1-0.2-0.3c0-0.2,0.1-0.3,0.1-0.3l-0.1,0
				c0,0-0.4,0.5-0.5,0.6c-0.1,0.1-0.4,0-0.2-0.3c0.2-0.3,0.8-1.6,0.8-1.6H13.8z"/>
			<path class="st9" d="M12.5,21.1c0,0.2-0.2,0.3-0.3,0.3c-0.2,0-0.3-0.2-0.3-0.3v-0.2c0-0.2,0.2-0.3,0.3-0.3c0.2,0,0.3,0.2,0.3,0.3
				V21.1z"/>
			<path class="st9" d="M19.2,15.9c0,0.2-0.2,0.4-0.5,0.4c-0.3,0-0.5-0.2-0.5-0.4c0-0.2,0.2-0.4,0.5-0.4
				C18.9,15.5,19.2,15.7,19.2,15.9"/>
			<path class="st9" d="M18.2,22.3c0,0.2-0.2,0.5-0.4,0.5c-0.2,0-0.4-0.2-0.4-0.5c0-0.2,0.2-0.5,0.4-0.5
				C18.1,21.8,18.2,22,18.2,22.3"/>
			<path class="st9" d="M17.6,22.8c0-0.2,0.2-0.4,0.4-0.4c0.2,0,0.4,0.2,0.4,0.4V23c0,0.2-0.2,0.4-0.4,0.4c-0.2,0-0.4-0.2-0.4-0.4
				V22.8z"/>
			<path class="st9" d="M18.4,16.7c0,0.2-0.2,0.4-0.4,0.4h-0.3c-0.2,0-0.4-0.2-0.4-0.4c0-0.2,0.2-0.4,0.4-0.4H18
				C18.2,16.3,18.4,16.5,18.4,16.7"/>
			<path class="st9" d="M17.6,17.1c0,0.2,0.2,0.4,0.4,0.4h0.3c0.2,0,0.4-0.2,0.4-0.4c0-0.2-0.2-0.4-0.4-0.4H18
				C17.8,16.7,17.6,16.9,17.6,17.1"/>
			<path class="st9" d="M16,16.9c0,0-0.1-0.2-0.4-0.1c-0.2,0-0.4,0.3-0.4,0.3s-0.4,0-0.6,0.1c-0.2,0.1-0.3,0.6,0.1,0.6
				c0.4,0,0.8-0.3,0.8-0.3s0.3,0,0.4-0.2c0-0.2-0.1-0.2-0.1-0.2S16.1,17,16,16.9"/>
			<path class="st9" d="M17.2,17.5h-1.1c0,0,0,0.3-0.2,0.4C15.7,18,15.1,18,15,18.1c-0.1,0.1,0,0.5,0.2,0.5h0.3l0,0.1h-0.1v0.4h0.5
				c0,0,0,0.2,0.2,0.3c0.2,0.1,0.3,0.1,0.3,0.1H17l0,0.1c0,0-0.1,0-0.2,0.2c0,0.2-0.1,0.8,0.9,0.7c1-0.1,1.1-0.7,1-0.9
				c-0.1-0.1-0.2-0.2-0.4-0.2c-0.2,0-0.4,0.2-0.4,0.2h-0.3c0,0-0.1,0,0-0.1c0.1-0.1,0.2-0.2,0.2-0.5c0-0.2-0.1-0.3-0.1-0.3v-0.1
				c0,0,0.3,0,0.3-0.3c0-0.4-0.2-0.4-0.5-0.4c-0.3,0-0.4,0.5-0.4,0.5s0,0-0.1,0.1c-0.1,0-0.8,0.1-1,0.1c-0.2,0-0.3,0-0.3,0l0,0
				c0,0,0.1,0,0.6-0.1c0.4-0.1,0.8-0.3,0.8-0.5C17.3,17.6,17.2,17.5,17.2,17.5"/>
			<path class="st9" d="M19.6,12.7c0,0.1-0.1,0.2-0.2,0.2h-0.1c-0.1,0-0.2-0.1-0.2-0.2c0-0.1,0.1-0.2,0.2-0.2h0.1
				C19.5,12.5,19.6,12.6,19.6,12.7"/>
			<path class="st7" d="M11.4,19.8c0,0.1-0.1,0.2-0.2,0.2c-0.1,0-0.2-0.1-0.2-0.2v0c0-0.1,0.1-0.2,0.2-0.2
				C11.4,19.6,11.4,19.7,11.4,19.8L11.4,19.8z"/>
			<path class="st7" d="M10.4,19.4C10.4,19.5,10.4,19.5,10.4,19.4c-0.1,0.1-0.2,0.1-0.2,0v-0.1c0-0.1,0-0.1,0.1-0.1
				C10.4,19.3,10.4,19.3,10.4,19.4L10.4,19.4z"/>
			<path class="st7" d="M11.7,18.1C11.7,18.1,11.7,18.2,11.7,18.1l-0.2,0.1c0,0-0.1,0-0.1-0.1c0,0,0-0.1,0.1-0.1L11.7,18.1
				C11.7,18,11.7,18.1,11.7,18.1"/>
			<path class="st7" d="M16.7,17.9C16.7,18,16.7,18,16.7,17.9L16.4,18c0,0-0.1,0-0.1-0.1c0,0,0-0.1,0.1-0.1L16.7,17.9
				C16.7,17.9,16.7,17.9,16.7,17.9"/>
			<path class="st7" d="M16.9,22.2C16.9,22.3,16.8,22.3,16.9,22.2l-0.5,0.1c0,0-0.1,0-0.1-0.1c0,0,0-0.1,0.1-0.1L16.9,22.2
				C16.8,22.1,16.9,22.2,16.9,22.2"/>
			<path class="st7" d="M19.6,17.9C19.6,17.9,19.5,17.9,19.6,17.9l-0.3,0.1c0,0-0.1,0-0.1-0.1c0,0,0-0.1,0.1-0.1L19.6,17.9
				C19.5,17.8,19.6,17.8,19.6,17.9"/>
			<path class="st7" d="M13,17.8c-0.1-0.1-0.2,0-0.4,0c-0.2,0-0.3,0.3-0.3,0.3s0.2,0.1,0.3,0.1C12.7,18.2,13.1,17.9,13,17.8"/>
			<rect x="13.7" y="19.9" class="st7" width="0.1" height="0.1"/>
			<rect x="17.5" y="19.1" class="st7" width="0.1" height="0.1"/>
			<rect x="17.3" y="19.2" class="st7" width="0.3" height="0.1"/>
			<rect x="17.2" y="19.2" class="st7" width="0.3" height="0.1"/>
			<rect x="16.3" y="19" class="st7" width="0.2" height="0.1"/>
			<rect x="16.3" y="19.2" class="st7" width="0.4" height="0.1"/>
			<path class="st7" d="M17.9,20.1V20c0,0-0.3,0-0.4,0c-0.1-0.1-0.1-0.1-0.2-0.1c-0.1,0-0.3,0.2-0.1,0.3c0.2,0.1,0.2,0.1,0.5,0
				C17.9,20.1,17.9,20.1,17.9,20.1"/>
			<path class="st7" d="M13,11c0,0.1-0.1,0.1-0.1,0.1c-0.1,0-0.1-0.1-0.1-0.1v-0.4c0-0.1,0.1-0.1,0.1-0.1c0.1,0,0.1,0.1,0.1,0.1V11z
				"/>
			<path class="st7" d="M12.9,11.7h-0.1c0,0-0.2,0.3-0.2,0.5s0.2,0.1,0.3,0.1C13,12.2,13,11.7,12.9,11.7"/>
			<path class="st7" d="M11.9,12.1l-0.3,0.3c0,0,0.1,0.1,0.2,0.1C12,12.5,12,12.1,11.9,12.1"/>
			<path class="st7" d="M13.6,14.1c0,0,0-0.4,0.2-0.5c0.2-0.1,0.3,0.2,0.3,0.2v-0.3c0,0,0-0.2-0.3-0.2
				C13.5,13.3,13.6,14.1,13.6,14.1"/>
			<path class="st7" d="M13.7,14.7c0,0,0.1,0.2,0.3,0.3c0.2,0,0.3-0.1,0.3-0.1v0.2c0,0-0.1,0-0.3,0C13.5,15.1,13.7,14.7,13.7,14.7"
				/>
			<path class="st7" d="M12,12.9c0,0,0.4,0.8,0.4,0.9c0,0.1,0,0.2-0.1,0.2c-0.1,0-0.2-0.1-0.2-0.1v0.2c0,0,0.2-0.1,0.3,0.1
				c0.1,0.2,0.1,1,0.1,1s0,0.1-0.2,0.1c-0.1,0-0.2-0.1-0.2-0.1l-0.1,0c0,0,0,0.1-0.1,0.2c-0.1,0.1-0.4,0.1-0.5,0.1
				c-0.1,0-0.1-0.1-0.1-0.1v-1.6c0,0,0.1-0.2,0.2-0.2c0.1,0,0.4,0,0.4,0s0-0.1-0.1-0.2C11.7,13,11.7,13,11.5,13
				c-0.1,0-0.2,0-0.2,0.2c0,0.1,0,0.2-0.1,0.3c-0.1,0.1-0.1,0.2-0.1,0.2c0,0.1-0.1,0.1-0.2,0.1c-0.1,0-0.2-0.1-0.1-0.3
				c0.1-0.2,0.1-0.2,0.1-0.2l0-0.1h-0.2v2.4l1.9-0.3c0,0,0.1-2.4,0-2.5C12.5,12.8,12,12.9,12,12.9"/>
			<polygon class="st7" points="13.1,12.4 14.8,13 14.8,13.1 13.1,12.5 			"/>
			<path class="st8" d="M21.2,13.3c0,0.1-0.1,0.2-0.2,0.2c-0.1,0-0.2-0.1-0.2-0.2v-1.1c0-0.1,0.1-0.2,0.2-0.2c0.1,0,0.2,0.1,0.2,0.2
				V13.3z"/>
			<path class="st8" d="M23.4,18.2C23.4,18.2,23.4,18.3,23.4,18.2l-0.6,0.1c-0.1,0-0.1,0-0.1-0.1v-0.4c0,0,0-0.1,0.1-0.1h0.5
				c0.1,0,0.1,0,0.1,0.1V18.2z"/>
			<path class="st8" d="M23.4,17.2C23.4,17.2,23.4,17.3,23.4,17.2l-0.6,0.1c-0.1,0-0.1,0-0.1-0.1v-0.4c0,0,0-0.1,0.1-0.1h0.5
				c0.1,0,0.1,0,0.1,0.1V17.2z"/>
			<polygon class="st8" points="16.5,15.2 16.5,15.1 19.5,14.5 19.9,14.5 22,15.1 22,15.2 19.9,14.6 19.5,14.6 			"/>
			<polygon class="st8" points="18.8,13.7 18.8,13.9 18.1,14.1 18.1,13.9 			"/>
			<path class="st9" d="M14.9,19.1V20c0,0,0.1,0,0.2,0c0.1,0,0.2-0.4,0.2-0.6c0-0.2-0.1-0.4-0.3-0.3C14.9,19,14.9,19.1,14.9,19.1"/>
			<path class="st9" d="M13.2,19c0.1,0.1,0,0.4-0.1,0.5c-0.1,0.1-0.2,0.1-0.3-0.1C12.7,19.2,13,18.9,13.2,19"/>
			<path class="st8" d="M16.9,16.1C16.9,16.1,16.9,16.1,16.9,16.1l-0.4,0c0,0,0,0,0,0v-0.2c0,0,0,0,0,0h0.4c0,0,0,0,0,0V16.1z"/>
			<path class="st8" d="M16.9,14.8C16.9,14.8,16.9,14.8,16.9,14.8l-0.2,0c0,0,0,0,0,0v-0.3c0,0,0,0,0,0h0.2c0,0,0,0,0,0V14.8z"/>
			<path class="st8" d="M11.4,16.7C11.4,16.7,11.4,16.7,11.4,16.7l-0.2,0c0,0,0,0,0,0v-0.1c0,0,0,0,0,0L11.4,16.7
				C11.4,16.7,11.4,16.7,11.4,16.7L11.4,16.7z"/>
			<path class="st8" d="M16.7,22.8C16.7,22.8,16.7,22.8,16.7,22.8l-0.2,0c0,0,0,0,0,0v-0.1c0,0,0,0,0,0L16.7,22.8
				C16.7,22.7,16.7,22.7,16.7,22.8L16.7,22.8z"/>
			<path class="st8" d="M18.2,17.3C18.2,17.3,18.2,17.3,18.2,17.3l-0.2,0c0,0,0,0,0,0v-0.1c0,0,0,0,0,0h0.1c0,0,0,0,0,0V17.3z"/>
			<path class="st8" d="M21.8,10.7h-0.4c0,0,0.1-0.2,0.2-0.2C21.7,10.5,21.8,10.7,21.8,10.7"/>
			<polygon class="st8" points="19.5,8.4 19.5,8.8 19.2,8.8 19.3,8.4 			"/>
			<polygon class="st8" points="18.6,9.6 18,10 18.1,10.1 18.7,9.6 			"/>
			<path class="st8" d="M17.8,10.5h-0.3l-0.2,0.2c0,0-0.1,0,0.1,0.1c0.2,0,0.4-0.1,0.4-0.1L17.8,10.5z"/>
			<path class="st8" d="M17.9,11.1C17.9,11.1,17.9,11.1,17.9,11.1l-0.2,0c0,0,0,0,0,0V11c0,0,0,0,0,0L17.9,11.1
				C17.9,11,17.9,11,17.9,11.1L17.9,11.1z"/>
			<path class="st8" d="M18.3,10.9v0.2l0.3,0c0,0,0-0.1,0.1-0.1c0.1-0.1,0.2-0.1,0.2-0.1v0h-0.6V10.9z"/>
			<path class="st8" d="M19.3,9.3h0.2v1.1c0,0-0.2,0.2-0.3,0.2c-0.1,0-0.4,0-0.4,0s0.1-0.1,0.1-0.2c0-0.1,0-0.2,0-0.2
				s0.4,0.1,0.4-0.1c0-0.2,0.1-0.3,0.1-0.3h-0.2l0.1-0.2l0.1,0V9.3z"/>
		</g>
		<g class="st5">
			<defs>
				<path id="SVGID_5_" d="M9.1,15.9c0,4.2,3.4,7.7,7.7,7.7c4.2,0,7.7-3.4,7.7-7.7c0-4.2-3.4-7.7-7.7-7.7
					C12.6,8.2,9.1,11.6,9.1,15.9"/>
			</defs>
			<clipPath id="SVGID_6_">
				<use xlink:href="#SVGID_5_"  style="overflow:visible;"/>
			</clipPath>
			<path class="st10" d="M11.5,21.6c0,0.2-0.1,0.3-0.3,0.3c-0.2,0-0.3-0.1-0.3-0.3v-0.1c0-0.2,0.1-0.3,0.3-0.3
				C11.4,21.2,11.5,21.3,11.5,21.6L11.5,21.6z"/>
			<path class="st10" d="M14.1,23.1c0,0.2-0.2,0.4-0.4,0.4c-0.2,0-0.4-0.2-0.4-0.4v-0.3c0-0.2,0.2-0.4,0.4-0.4
				c0.2,0,0.4,0.2,0.4,0.4V23.1z"/>
			<path class="st10" d="M12.7,22.1c0,0.2-0.2,0.4-0.4,0.4h-0.5c-0.2,0-0.4-0.2-0.4-0.4c0-0.2,0.2-0.4,0.4-0.4h0.5
				C12.5,21.7,12.7,21.9,12.7,22.1"/>
			<path class="st10" d="M22.1,22c0,0-0.2-0.7-0.4-0.6c-0.2,0.1-1.1,0.6-1.3,0.6c-0.2,0-0.4-0.1-0.5,0.1c-0.1,0.1,0,0.3-0.1,0.3
				c-0.1,0-0.2-0.1-0.6-0.1c-0.4,0-0.7,0.1-0.6,0.6c0,0.5,0.3,0.9,0.3,0.9s1.4-0.5,1.8-0.7C21.2,22.9,22.1,22,22.1,22"/>
		</g>
	</g>
</g>
</svg>
